AtkinsonHyperlegibleMono-ExtraLightItalic.sfdir
StartChar: ampersand
Encoding: 38 38 289
Width: 632
GlyphClass: 1
Flags: W
LayerCount: 2
Fore
SplineSet
67 32.5 m 128,-1,1
 10 76 10 76 10 151 c 0,2,3
 10 240 10 240 73 301.5 c 128,-1,4
 136 363 136 363 238 393 c 1,5,6
 188 468 188 468 188 527 c 0,7,8
 188 567 188 567 209 602.5 c 128,-1,9
 230 638 230 638 267.5 660 c 128,-1,10
 305 682 305 682 352 682 c 0,11,12
 415 682 415 682 454.5 646 c 128,-1,13
 494 610 494 610 494 557 c 0,14,15
 494 489 494 489 442.5 441.5 c 128,-1,16
 391 394 391 394 314 372 c 1,17,-1
 443 181 l 1,18,19
 461 211 461 211 471.5 246.5 c 128,-1,20
 482 282 482 282 492 339 c 1,21,-1
 549 339 l 1,22,23
 527 218 527 218 472 138 c 1,24,-1
 565 0 l 1,25,-1
 500 0 l 1,26,-1
 439 93 l 1,27,28
 387 38 387 38 331 13.5 c 128,-1,29
 275 -11 275 -11 211 -11 c 0,30,0
 124 -11 124 -11 67 32.5 c 128,-1,1
321.5 62 m 128,-1,32
 369 85 369 85 411 135 c 1,33,-1
 264 355 l 1,34,35
 66 292 66 292 66 160 c 0,36,37
 66 105 66 105 108.5 72 c 128,-1,38
 151 39 151 39 219 39 c 0,39,31
 274 39 274 39 321.5 62 c 128,-1,32
398 462 m 128,-1,41
 440 498 440 498 440 552 c 0,42,43
 440 587 440 587 414.5 610.5 c 128,-1,44
 389 634 389 634 350 634 c 0,45,46
 301 634 301 634 270.5 602 c 128,-1,47
 240 570 240 570 240 528 c 0,48,49
 240 476 240 476 291 407 c 1,50,40
 356 426 356 426 398 462 c 128,-1,41
EndSplineSet
EndChar
StartChar: parenleft
Encoding: 40 40 268
Width: 632
GlyphClass: 1
Flags: W
LayerCount: 2
Fore
SplineSet
228 8.5 m 128,-1,1
 194 100 194 100 194 194 c 0,2,3
 194 346 194 346 280 481 c 128,-1,4
 366 616 366 616 509 708 c 1,5,-1
 590 708 l 1,6,7
 441 614 441 614 346 482 c 128,-1,8
 251 350 251 350 251 199 c 0,9,10
 251 107 251 107 287.5 14.5 c 128,-1,11
 324 -78 324 -78 394 -162 c 1,12,-1
 326 -162 l 1,13,0
 262 -83 262 -83 228 8.5 c 128,-1,1
EndSplineSet
EndChar
StartChar: parenright
Encoding: 41 41 269
Width: 632
GlyphClass: 1
Flags: W
LayerCount: 2
Fore
SplineSet
297 64 m 128,-1,1
 392 196 392 196 392 347 c 0,2,3
 392 439 392 439 355.5 531.5 c 128,-1,4
 319 624 319 624 249 708 c 1,5,-1
 317 708 l 1,6,7
 381 629 381 629 415 537.5 c 128,-1,8
 449 446 449 446 449 352 c 0,9,10
 449 200 449 200 363 65 c 128,-1,11
 277 -70 277 -70 134 -162 c 1,12,-1
 53 -162 l 1,13,0
 202 -68 202 -68 297 64 c 128,-1,1
EndSplineSet
EndChar
StartChar: asterisk
Encoding: 42 42 260
Width: 632
GlyphClass: 1
Flags: W
LayerCount: 2
Fore
SplineSet
211 362 m 1,0,-1
 331 483 l 1,1,-1
 201 539 l 1,2,-1
 224 580 l 1,3,-1
 353 521 l 1,4,-1
 383 666 l 1,5,-1
 426 666 l 1,6,-1
 396 518 l 1,7,-1
 543 547 l 1,8,-1
 546 503 l 1,9,-1
 401 475 l 1,10,-1
 457 357 l 1,11,-1
 420 334 l 1,12,-1
 362 450 l 1,13,-1
 244 334 l 1,14,-1
 211 362 l 1,0,-1
EndSplineSet
EndChar
StartChar: hyphen
Encoding: 45 45 264
Width: 632
GlyphClass: 1
Flags: W
LayerCount: 2
Fore
SplineSet
185 277 m 1,0,-1
 460 277 l 1,1,-1
 447 220 l 1,2,-1
 172 220 l 1,3,-1
 185 277 l 1,0,-1
EndSplineSet
EndChar
StartChar: zero
Encoding: 48 48 229
Width: 632
GlyphClass: 1
Flags: W
LayerCount: 2
Fore
SplineSet
125.5 55 m 128,-1,1
 72 123 72 123 72 236 c 0,2,3
 72 334 72 334 105.5 437.5 c 128,-1,4
 139 541 139 541 209 612 c 128,-1,5
 279 683 279 683 383 683 c 0,6,7
 491 683 491 683 544.5 615 c 128,-1,8
 598 547 598 547 598 434 c 0,9,10
 598 336 598 336 564.5 232.5 c 128,-1,11
 531 129 531 129 461 58 c 128,-1,12
 391 -13 391 -13 287 -13 c 0,13,0
 179 -13 179 -13 125.5 55 c 128,-1,1
424 93 m 1,15,-1
 216 542 l 1,16,17
 172 481 172 481 149.5 395 c 128,-1,18
 127 309 127 309 127 234 c 0,19,20
 127 144 127 144 166 90 c 128,-1,21
 205 36 205 36 289 36 c 0,22,14
 365 36 365 36 424 93 c 1,15,-1
521 276 m 128,-1,24
 543 361 543 361 543 436 c 0,25,26
 543 526 543 526 504 580 c 128,-1,27
 465 634 465 634 381 634 c 0,28,29
 306 634 306 634 247 578 c 1,30,-1
 456 130 l 1,31,23
 499 191 499 191 521 276 c 128,-1,24
EndSplineSet
Substitution2: "'zero' Slashed Zero in Latin lookup 10 subtable" zero.zero
AlternateSubs2: "'aalt' Access All Alternates in Latin lookup 0 subtable" zero.zero
EndChar
StartChar: one
Encoding: 49 49 230
Width: 632
GlyphClass: 5
Flags: W
LayerCount: 2
Fore
SplineSet
79 50 m 1,0,-1
 258 50 l 1,1,-1
 362 532 l 1,2,-1
 180 532 l 1,3,-1
 189 572 l 1,4,-1
 221 572 l 2,5,6
 282 572 282 572 314.5 580 c 128,-1,7
 347 588 347 588 367 607.5 c 128,-1,8
 387 627 387 627 409 668 c 1,9,-1
 446 668 l 1,10,-1
 314 50 l 1,11,-1
 480 50 l 1,12,-1
 469 0 l 1,13,-1
 69 0 l 1,14,-1
 79 50 l 1,0,-1
EndSplineSet
Substitution2: "'sups' Superscript in Latin lookup 6 subtable" uni00B9
AlternateSubs2: "'aalt' Access All Alternates in Latin lookup 0 subtable" uni00B9
EndChar
StartChar: two
Encoding: 50 50 231
Width: 632
GlyphClass: 5
Flags: W
LayerCount: 2
Fore
SplineSet
119 93 m 2,0,1
 243 175 243 175 322.5 235 c 128,-1,2
 402 295 402 295 461.5 368 c 128,-1,3
 521 441 521 441 521 513 c 0,4,5
 521 565 521 565 485 598 c 128,-1,6
 449 631 449 631 390 631 c 0,7,8
 335 631 335 631 288.5 600.5 c 128,-1,9
 242 570 242 570 220 504 c 1,10,-1
 163 522 l 1,11,12
 193 599 193 599 252.5 639.5 c 128,-1,13
 312 680 312 680 390 680 c 0,14,15
 474 680 474 680 527 636.5 c 128,-1,16
 580 593 580 593 580 520 c 0,17,18
 580 435 580 435 517.5 354 c 128,-1,19
 455 273 455 273 375 212.5 c 128,-1,20
 295 152 295 152 190 84 c 2,21,-1
 143 53 l 1,22,-1
 511 53 l 1,23,-1
 499 0 l 1,24,-1
 44 0 l 1,25,-1
 55 51 l 1,26,-1
 119 93 l 2,0,1
EndSplineSet
Substitution2: "'sups' Superscript in Latin lookup 6 subtable" uni00B2
AlternateSubs2: "'aalt' Access All Alternates in Latin lookup 0 subtable" uni00B2
EndChar
StartChar: six
Encoding: 54 54 235
Width: 632
GlyphClass: 1
Flags: W
LayerCount: 2
Fore
SplineSet
154.5 45.5 m 128,-1,1
 105 103 105 103 105 205 c 0,2,3
 105 295 105 295 139 407 c 128,-1,4
 173 519 173 519 243.5 599.5 c 128,-1,5
 314 680 314 680 416 680 c 0,6,7
 477 680 477 680 523.5 651.5 c 128,-1,8
 570 623 570 623 587 571 c 1,9,-1
 534 551 l 1,10,11
 523 588 523 588 490 609.5 c 128,-1,12
 457 631 457 631 414 631 c 0,13,14
 326 631 326 631 264 543 c 128,-1,15
 202 455 202 455 174 338 c 1,16,17
 205 388 205 388 256 412.5 c 128,-1,18
 307 437 307 437 360 437 c 0,19,20
 418 437 418 437 461 413 c 128,-1,21
 504 389 504 389 527.5 345.5 c 128,-1,22
 551 302 551 302 551 247 c 0,23,24
 551 178 551 178 519 118.5 c 128,-1,25
 487 59 487 59 429.5 23.5 c 128,-1,26
 372 -12 372 -12 301 -12 c 0,27,0
 204 -12 204 -12 154.5 45.5 c 128,-1,1
407 66 m 128,-1,29
 449 95 449 95 471.5 142 c 128,-1,30
 494 189 494 189 494 241 c 0,31,32
 494 307 494 307 454.5 347.5 c 128,-1,33
 415 388 415 388 349 388 c 0,34,35
 291 388 291 388 248 359 c 128,-1,36
 205 330 205 330 182 283 c 128,-1,37
 159 236 159 236 159 183 c 0,38,39
 159 117 159 117 200 77 c 128,-1,40
 241 37 241 37 310 37 c 0,41,28
 365 37 365 37 407 66 c 128,-1,29
EndSplineSet
EndChar
StartChar: seven
Encoding: 55 55 236
Width: 632
GlyphClass: 1
Flags: W
LayerCount: 2
Fore
SplineSet
554 615 m 1,0,-1
 179 615 l 1,1,-1
 190 668 l 1,2,-1
 628 668 l 1,3,-1
 616 615 l 1,4,-1
 202 0 l 1,5,-1
 135 0 l 1,6,-1
 554 615 l 1,0,-1
EndSplineSet
EndChar
StartChar: greater
Encoding: 62 62 317
Width: 632
GlyphClass: 1
Flags: W
LayerCount: 2
Fore
SplineSet
48 73 m 1,0,-1
 475 250 l 1,1,-1
 123 428 l 1,2,-1
 136 486 l 1,3,-1
 552 273 l 1,4,-1
 542 223 l 1,5,-1
 34 9 l 1,6,-1
 48 73 l 1,0,-1
EndSplineSet
EndChar
StartChar: question
Encoding: 63 63 256
Width: 632
GlyphClass: 1
Flags: W
LayerCount: 2
Fore
SplineSet
283 266.5 m 128,-1,1
 296 291 296 291 320.5 313 c 128,-1,2
 345 335 345 335 392 364 c 0,3,4
 449 400 449 400 484 439 c 128,-1,5
 519 478 519 478 519 526 c 0,6,7
 519 571 519 571 483 600.5 c 128,-1,8
 447 630 447 630 390 630 c 0,9,10
 329 630 329 630 290.5 592.5 c 128,-1,11
 252 555 252 555 241 509 c 1,12,-1
 185 519 l 1,13,14
 204 595 204 595 262.5 637.5 c 128,-1,15
 321 680 321 680 399 680 c 0,16,17
 444 680 444 680 484.5 662 c 128,-1,18
 525 644 525 644 550 610.5 c 128,-1,19
 575 577 575 577 575 532 c 0,20,21
 575 484 575 484 553 446 c 128,-1,22
 531 408 531 408 496 378.5 c 128,-1,23
 461 349 461 349 406 314 c 0,24,25
 359 284 359 284 342.5 263.5 c 128,-1,26
 326 243 326 243 318 207 c 2,27,-1
 308 163 l 1,28,-1
 252 163 l 1,29,-1
 261 203 l 2,30,0
 270 242 270 242 283 266.5 c 128,-1,1
219 2 m 128,-1,32
 205 16 205 16 205 36 c 256,33,34
 205 56 205 56 219 70 c 128,-1,35
 233 84 233 84 253 84 c 256,36,37
 273 84 273 84 287 70 c 128,-1,38
 301 56 301 56 301 36 c 256,39,40
 301 16 301 16 287 2 c 128,-1,41
 273 -12 273 -12 253 -12 c 256,42,31
 233 -12 233 -12 219 2 c 128,-1,32
EndSplineSet
EndChar
StartChar: A
Encoding: 65 65 2
Width: 632
GlyphClass: 2
Flags: W
AnchorPoint: "Anchor-2" 546 10 basechar 0
AnchorPoint: "Anchor-1" 405 668 basechar 0
AnchorPoint: "Anchor-0" 263 0 basechar 0
LayerCount: 2
Fore
SplineSet
375 668 m 1,0,-1
 436 668 l 1,1,-1
 544 0 l 1,2,-1
 488 0 l 1,3,-1
 463 167 l 1,4,-1
 139 167 l 1,5,-1
 43 0 l 1,6,-1
 -18 0 l 1,7,-1
 375 668 l 1,0,-1
456 217 m 1,8,-1
 397 607 l 1,9,-1
 393 607 l 1,10,-1
 168 217 l 1,11,-1
 456 217 l 1,8,-1
EndSplineSet
Substitution2: "Single Substitution lookup 14 subtable" ordfeminine
AlternateSubs2: "'aalt' Access All Alternates in Latin lookup 0 subtable" ordfeminine
EndChar
StartChar: C
Encoding: 67 67 14
Width: 632
GlyphClass: 2
Flags: W
AnchorPoint: "Anchor-1" 426 668 basechar 0
AnchorPoint: "Anchor-0" 314 0 basechar 0
LayerCount: 2
Fore
SplineSet
130 64.5 m 128,-1,1
 67 141 67 141 67 263 c 0,2,3
 67 358 67 358 106.5 455 c 128,-1,4
 146 552 146 552 222.5 616 c 128,-1,5
 299 680 299 680 404 680 c 0,6,7
 481 680 481 680 541 640 c 128,-1,8
 601 600 601 600 624 527 c 1,9,-1
 572 509 l 1,10,11
 555 565 555 565 509.5 597.5 c 128,-1,12
 464 630 464 630 402 630 c 0,13,14
 314 630 314 630 251.5 572.5 c 128,-1,15
 189 515 189 515 157.5 430.5 c 128,-1,16
 126 346 126 346 126 267 c 0,17,18
 126 166 126 166 174 102 c 128,-1,19
 222 38 222 38 318 38 c 0,20,21
 434 38 434 38 513 154 c 1,22,-1
 563 132 l 1,23,24
 473 -12 473 -12 314 -12 c 0,25,0
 193 -12 193 -12 130 64.5 c 128,-1,1
EndSplineSet
EndChar
StartChar: D
Encoding: 68 68 19
Width: 632
GlyphClass: 2
Flags: W
AnchorPoint: "Anchor-1" 417 668 basechar 0
AnchorPoint: "Anchor-0" 265 0 basechar 0
LayerCount: 2
Fore
SplineSet
166 668 m 1,0,-1
 277 668 l 2,1,2
 440 668 440 668 526.5 601 c 128,-1,3
 613 534 613 534 613 403 c 0,4,5
 613 307 613 307 577.5 215 c 128,-1,6
 542 123 542 123 460 61.5 c 128,-1,7
 378 0 378 0 248 0 c 2,8,-1
 24 0 l 1,9,-1
 166 668 l 1,0,-1
426.5 102.5 m 128,-1,11
 495 155 495 155 524.5 235 c 128,-1,12
 554 315 554 315 554 403 c 0,13,14
 554 618 554 618 276 618 c 2,15,-1
 213 618 l 1,16,-1
 92 50 l 1,17,-1
 249 50 l 2,18,10
 358 50 358 50 426.5 102.5 c 128,-1,11
EndSplineSet
EndChar
StartChar: F
Encoding: 70 70 32
Width: 632
GlyphClass: 2
Flags: W
AnchorPoint: "Anchor-1" 398 668 basechar 0
AnchorPoint: "Anchor-0" 256 0 basechar 0
LayerCount: 2
Fore
SplineSet
225 668 m 1,0,-1
 627 668 l 1,1,-1
 616 618 l 1,2,-1
 273 618 l 1,3,-1
 219 368 l 1,4,-1
 559 368 l 1,5,-1
 548 318 l 1,6,-1
 209 318 l 1,7,-1
 141 0 l 1,8,-1
 83 0 l 1,9,-1
 225 668 l 1,0,-1
EndSplineSet
EndChar
StartChar: J
Encoding: 74 74 48
Width: 632
GlyphClass: 2
Flags: W
AnchorPoint: "Anchor-1" 562 668 basechar 0
AnchorPoint: "Anchor-0" 270 0 basechar 0
LayerCount: 2
Fore
SplineSet
113 31.5 m 128,-1,1
 56 75 56 75 56 160 c 0,2,3
 56 184 56 184 58 196 c 1,4,-1
 115 207 l 1,5,6
 111 188 111 188 111 167 c 0,7,8
 111 109 111 109 149.5 73.5 c 128,-1,9
 188 38 188 38 267 38 c 0,10,11
 323 38 323 38 367.5 67 c 128,-1,12
 412 96 412 96 427 171 c 2,13,-1
 533 668 l 1,14,-1
 591 668 l 1,15,-1
 484 163 l 2,16,17
 466 76 466 76 408 32 c 128,-1,18
 350 -12 350 -12 265 -12 c 0,19,0
 170 -12 170 -12 113 31.5 c 128,-1,1
EndSplineSet
Substitution2: "Single Substitution lookup 13 subtable" uni004A0301
AlternateSubs2: "'aalt' Access All Alternates in Latin lookup 0 subtable" uni004A0301
EndChar
StartChar: K
Encoding: 75 75 50
Width: 632
GlyphClass: 2
Flags: W
AnchorPoint: "Anchor-1" 395 668 basechar 0
AnchorPoint: "Anchor-0" 263 0 basechar 0
LayerCount: 2
Fore
SplineSet
186 668 m 1,0,-1
 244 668 l 1,1,-1
 165 295 l 1,2,-1
 575 668 l 1,3,-1
 653 668 l 1,4,-1
 340 388 l 1,5,-1
 547 0 l 1,6,-1
 480 0 l 1,7,-1
 298 349 l 1,8,-1
 148 215 l 1,9,-1
 102 0 l 1,10,-1
 44 0 l 1,11,-1
 186 668 l 1,0,-1
EndSplineSet
EndChar
StartChar: N
Encoding: 78 78 57
Width: 632
GlyphClass: 2
Flags: W
AnchorPoint: "Anchor-1" 405 668 basechar 0
AnchorPoint: "Anchor-0" 250 0 basechar 0
LayerCount: 2
Fore
SplineSet
173 668 m 1,0,-1
 259 668 l 1,1,-1
 447 65 l 1,2,-1
 451 65 l 1,3,-1
 579 668 l 1,4,-1
 637 668 l 1,5,-1
 495 0 l 1,6,-1
 409 0 l 1,7,-1
 221 603 l 1,8,-1
 217 603 l 1,9,-1
 89 0 l 1,10,-1
 31 0 l 1,11,-1
 173 668 l 1,0,-1
EndSplineSet
EndChar
StartChar: O
Encoding: 79 79 62
Width: 632
GlyphClass: 2
Flags: W
AnchorPoint: "Anchor-3" 723 668 basechar 0
AnchorPoint: "Anchor-2" 534 10 basechar 0
AnchorPoint: "Anchor-1" 406 668 basechar 0
AnchorPoint: "Anchor-0" 264 0 basechar 0
LayerCount: 2
Fore
SplineSet
112 62.5 m 128,-1,1
 53 137 53 137 53 256 c 0,2,3
 53 354 53 354 90.5 452 c 128,-1,4
 128 550 128 550 202 615 c 128,-1,5
 276 680 276 680 380 680 c 0,6,7
 497 680 497 680 556 605.5 c 128,-1,8
 615 531 615 531 615 412 c 0,9,10
 615 314 615 314 577.5 216 c 128,-1,11
 540 118 540 118 466 53 c 128,-1,12
 392 -12 392 -12 288 -12 c 0,13,0
 171 -12 171 -12 112 62.5 c 128,-1,1
438 98 m 128,-1,15
 498 158 498 158 527 245 c 128,-1,16
 556 332 556 332 556 411 c 0,17,18
 556 509 556 509 512 569.5 c 128,-1,19
 468 630 468 630 378 630 c 0,20,21
 290 630 290 630 230 570 c 128,-1,22
 170 510 170 510 141 423 c 128,-1,23
 112 336 112 336 112 257 c 0,24,25
 112 159 112 159 156 98.5 c 128,-1,26
 200 38 200 38 290 38 c 0,27,14
 378 38 378 38 438 98 c 128,-1,15
EndSplineSet
Substitution2: "Single Substitution lookup 14 subtable" ordmasculine
AlternateSubs2: "'aalt' Access All Alternates in Latin lookup 0 subtable" ordmasculine
EndChar
StartChar: P
Encoding: 80 80 71
Width: 632
GlyphClass: 2
Flags: W
AnchorPoint: "Anchor-1" 406 668 basechar 0
AnchorPoint: "Anchor-0" 264 0 basechar 0
LayerCount: 2
Fore
SplineSet
207 668 m 1,0,-1
 389 668 l 2,1,2
 495 668 495 668 554.5 623.5 c 128,-1,3
 614 579 614 579 614 500 c 0,4,5
 614 400 614 400 551 342 c 128,-1,6
 488 284 488 284 379 284 c 2,7,-1
 184 284 l 1,8,-1
 123 0 l 1,9,-1
 65 0 l 1,10,-1
 207 668 l 1,0,-1
509.5 374.5 m 128,-1,12
 555 416 555 416 555 495 c 0,13,14
 555 556 555 556 510.5 587 c 128,-1,15
 466 618 466 618 385 618 c 2,16,-1
 255 618 l 1,17,-1
 194 333 l 1,18,-1
 383 333 l 2,19,11
 464 333 464 333 509.5 374.5 c 128,-1,12
EndSplineSet
EndChar
StartChar: R
Encoding: 82 82 74
Width: 632
GlyphClass: 2
Flags: W
AnchorPoint: "Anchor-1" 381 668 basechar 0
AnchorPoint: "Anchor-0" 258 0 basechar 0
LayerCount: 2
Fore
SplineSet
206 668 m 1,0,-1
 387 668 l 2,1,2
 486 668 486 668 543 623.5 c 128,-1,3
 600 579 600 579 600 501 c 0,4,5
 600 412 600 412 542 352.5 c 128,-1,6
 484 293 484 293 358 292 c 1,7,-1
 509 0 l 1,8,-1
 442 0 l 1,9,-1
 298 290 l 1,10,-1
 183 290 l 1,11,-1
 122 0 l 1,12,-1
 64 0 l 1,13,-1
 206 668 l 1,0,-1
494 380 m 128,-1,15
 541 420 541 420 541 496 c 0,16,17
 541 554 541 554 498.5 586 c 128,-1,18
 456 618 456 618 381 618 c 2,19,-1
 253 618 l 1,20,-1
 194 340 l 1,21,-1
 369 340 l 2,22,14
 447 340 447 340 494 380 c 128,-1,15
EndSplineSet
EndChar
StartChar: S
Encoding: 83 83 77
Width: 632
GlyphClass: 2
Flags: W
AnchorPoint: "Anchor-1" 395 668 basechar 0
AnchorPoint: "Anchor-0" 293 0 basechar 0
LayerCount: 2
Fore
SplineSet
192 5 m 128,-1,1
 142 22 142 22 105 57 c 128,-1,2
 68 92 68 92 58 143 c 1,3,-1
 114 163 l 1,4,5
 125 102 125 102 176.5 70 c 128,-1,6
 228 38 228 38 299 38 c 0,7,8
 352 38 352 38 395 57.5 c 128,-1,9
 438 77 438 77 463 111.5 c 128,-1,10
 488 146 488 146 488 190 c 0,11,12
 488 233 488 233 455.5 260 c 128,-1,13
 423 287 423 287 363 309 c 2,14,-1
 275 342 l 2,15,16
 140 391 140 391 140 494 c 0,17,18
 140 548 140 548 173 590.5 c 128,-1,19
 206 633 206 633 260 656.5 c 128,-1,20
 314 680 314 680 374 680 c 0,21,22
 447 680 447 680 506 650 c 128,-1,23
 565 620 565 620 590 561 c 1,24,-1
 533 541 l 1,25,26
 515 584 515 584 469 607 c 128,-1,27
 423 630 423 630 370 630 c 0,28,29
 326 630 326 630 286.5 614.5 c 128,-1,30
 247 599 247 599 223 570 c 128,-1,31
 199 541 199 541 199 503 c 0,32,33
 199 461 199 461 222.5 436.5 c 128,-1,34
 246 412 246 412 299 393 c 2,35,-1
 387 360 l 2,36,37
 465 331 465 331 506 293 c 128,-1,38
 547 255 547 255 547 197 c 0,39,40
 547 133 547 133 512.5 85.5 c 128,-1,41
 478 38 478 38 420 13 c 128,-1,42
 362 -12 362 -12 293 -12 c 0,43,0
 242 -12 242 -12 192 5 c 128,-1,1
EndSplineSet
EndChar
StartChar: V
Encoding: 86 86 96
Width: 632
GlyphClass: 2
Flags: W
AnchorPoint: "Anchor-1" 406 668 basechar 0
AnchorPoint: "Anchor-0" 264 0 basechar 0
LayerCount: 2
Fore
SplineSet
138 668 m 1,0,-1
 195 668 l 1,1,-1
 272 70 l 1,2,-1
 276 70 l 1,3,-1
 610 668 l 1,4,-1
 672 668 l 1,5,-1
 293 0 l 1,6,-1
 232 0 l 1,7,-1
 138 668 l 1,0,-1
EndSplineSet
EndChar
StartChar: Y
Encoding: 89 89 103
Width: 632
GlyphClass: 2
Flags: W
AnchorPoint: "Anchor-1" 390 668 basechar 0
AnchorPoint: "Anchor-0" 264 0 basechar 0
LayerCount: 2
Fore
SplineSet
292 268 m 1,0,-1
 124 668 l 1,1,-1
 188 668 l 1,2,-1
 327 329 l 1,3,-1
 331 329 l 1,4,-1
 612 668 l 1,5,-1
 686 668 l 1,6,-1
 350 268 l 1,7,-1
 293 0 l 1,8,-1
 235 0 l 1,9,-1
 292 268 l 1,0,-1
EndSplineSet
EndChar
StartChar: asciicircum
Encoding: 94 94 325
Width: 632
GlyphClass: 1
Flags: W
LayerCount: 2
Fore
SplineSet
376 668 m 1,0,-1
 432 668 l 1,1,-1
 543 311 l 1,2,-1
 486 311 l 1,3,-1
 395 611 l 1,4,-1
 177 311 l 1,5,-1
 114 311 l 1,6,-1
 376 668 l 1,0,-1
EndSplineSet
EndChar
StartChar: a
Encoding: 97 97 112
Width: 632
GlyphClass: 2
Flags: W
AnchorPoint: "Anchor-2" 465 10 basechar 0
AnchorPoint: "Anchor-1" 363 496 basechar 0
AnchorPoint: "Anchor-0" 257 0 basechar 0
LayerCount: 2
Fore
SplineSet
110.5 21 m 128,-1,1
 62 54 62 54 62 113 c 0,2,3
 62 205 62 205 155.5 252 c 128,-1,4
 249 299 249 299 456 309 c 1,5,-1
 457 314 l 2,6,7
 461 338 461 338 461 350 c 0,8,9
 461 398 461 398 429.5 428.5 c 128,-1,10
 398 459 398 459 332 459 c 0,11,12
 281 459 281 459 245.5 435.5 c 128,-1,13
 210 412 210 412 198 373 c 1,14,-1
 140 387 l 1,15,16
 166 446 166 446 217 476 c 128,-1,17
 268 506 268 506 334 506 c 0,18,19
 421 506 421 506 468 469.5 c 128,-1,20
 515 433 515 433 515 357 c 0,21,22
 515 326 515 326 508 294 c 2,23,-1
 487 194 l 2,24,25
 463 81 463 81 463 0 c 1,26,-1
 417 0 l 1,27,-1
 415 79 l 1,28,29
 389 41 389 41 340 14.5 c 128,-1,30
 291 -12 291 -12 227 -12 c 0,31,0
 159 -12 159 -12 110.5 21 c 128,-1,1
360 78 m 128,-1,33
 416 120 416 120 432 195 c 2,34,-1
 446 262 l 1,35,36
 270 255 270 255 195 218 c 128,-1,37
 120 181 120 181 120 119 c 0,38,39
 120 81 120 81 152 58.5 c 128,-1,40
 184 36 184 36 236 36 c 0,41,32
 304 36 304 36 360 78 c 128,-1,33
EndSplineSet
Substitution2: "Single Substitution lookup 14 subtable" ordfeminine
AlternateSubs2: "'aalt' Access All Alternates in Latin lookup 0 subtable" ordfeminine
EndChar
StartChar: e
Encoding: 101 101 133
Width: 632
GlyphClass: 2
Flags: W
AnchorPoint: "Anchor-2" 421 -5 basechar 0
AnchorPoint: "Anchor-1" 373 494 basechar 0
AnchorPoint: "Anchor-0" 261 2 basechar 0
LayerCount: 2
Fore
SplineSet
139 46.5 m 128,-1,1
 82 105 82 105 82 199 c 0,2,3
 82 278 82 278 115 348.5 c 128,-1,4
 148 419 148 419 209 462.5 c 128,-1,5
 270 506 270 506 350 506 c 0,6,7
 414 506 414 506 461 479.5 c 128,-1,8
 508 453 508 453 533 406.5 c 128,-1,9
 558 360 558 360 558 303 c 0,10,11
 558 278 558 278 551 243 c 1,12,-1
 140 243 l 1,13,14
 138 221 138 221 138 210 c 0,15,16
 138 128 138 128 182.5 82.5 c 128,-1,17
 227 37 227 37 309 37 c 0,18,19
 353 37 353 37 385 52.5 c 128,-1,20
 417 68 417 68 441 99 c 1,21,-1
 498 76 l 1,22,23
 461 33 461 33 414.5 10.5 c 128,-1,24
 368 -12 368 -12 306 -12 c 0,25,0
 196 -12 196 -12 139 46.5 c 128,-1,1
501 310 m 0,27,28
 501 351 501 351 482 384.5 c 128,-1,29
 463 418 463 418 428 437.5 c 128,-1,30
 393 457 393 457 347 457 c 0,31,32
 271 457 271 457 220 409.5 c 128,-1,33
 169 362 169 362 149 289 c 1,34,-1
 500 289 l 1,35,26
 501 296 501 296 501 310 c 0,27,28
EndSplineSet
EndChar
StartChar: m
Encoding: 109 109 167
Width: 632
GlyphClass: 2
Flags: W
AnchorPoint: "Anchor-1" 365 496 basechar 0
AnchorPoint: "Anchor-0" 264 0 basechar 0
LayerCount: 2
Fore
SplineSet
123 496 m 1,0,-1
 167 496 l 1,1,-1
 164 441 l 1,2,3
 184 468 184 468 215.5 487 c 128,-1,4
 247 506 247 506 286 506 c 0,5,6
 327 506 327 506 349.5 488 c 128,-1,7
 372 470 372 470 377 438 c 1,8,9
 395 466 395 466 428.5 486 c 128,-1,10
 462 506 462 506 503 506 c 0,11,12
 551 506 551 506 573.5 483 c 128,-1,13
 596 460 596 460 596 418 c 0,14,15
 596 400 596 400 591 375 c 2,16,-1
 511 0 l 1,17,-1
 455 0 l 1,18,-1
 531 357 l 2,19,20
 536 382 536 382 536 398 c 0,21,22
 536 457 536 457 480 457 c 0,23,24
 439 457 439 457 407.5 425.5 c 128,-1,25
 376 394 376 394 364 336 c 2,26,-1
 292 0 l 1,27,-1
 236 0 l 1,28,-1
 313 358 l 2,29,30
 318 383 318 383 318 398 c 0,31,32
 318 457 318 457 263 457 c 0,33,34
 223 457 223 457 190 425 c 128,-1,35
 157 393 157 393 144 335 c 2,36,-1
 73 0 l 1,37,-1
 17 0 l 1,38,-1
 123 496 l 1,0,-1
EndSplineSet
EndChar
StartChar: n
Encoding: 110 110 168
Width: 632
GlyphClass: 2
Flags: W
AnchorPoint: "Anchor-1" 369 496 basechar 0
AnchorPoint: "Anchor-0" 257 0 basechar 0
LayerCount: 2
Fore
SplineSet
166 496 m 1,0,-1
 208 496 l 1,1,-1
 203 416 l 1,2,3
 232 452 232 452 279.5 479 c 128,-1,4
 327 506 327 506 384 506 c 0,5,6
 463 506 463 506 501.5 466 c 128,-1,7
 540 426 540 426 540 363 c 0,8,9
 540 336 540 336 534 309 c 2,10,-1
 468 0 l 1,11,-1
 412 0 l 1,12,-1
 475 298 l 2,13,14
 482 327 482 327 482 357 c 0,15,16
 482 406 482 406 455 431.5 c 128,-1,17
 428 457 428 457 369 457 c 0,18,19
 327 457 327 457 286.5 434.5 c 128,-1,20
 246 412 246 412 216 370 c 128,-1,21
 186 328 186 328 174 273 c 2,22,-1
 116 0 l 1,23,-1
 60 0 l 1,24,-1
 166 496 l 1,0,-1
EndSplineSet
EndChar
StartChar: o
Encoding: 111 111 173
Width: 632
GlyphClass: 2
Flags: W
AnchorPoint: "Anchor-3" 644 496 basechar 0
AnchorPoint: "Anchor-2" 504 10 basechar 0
AnchorPoint: "Anchor-1" 365 496 basechar 0
AnchorPoint: "Anchor-0" 262 0 basechar 0
LayerCount: 2
Fore
SplineSet
175 14.5 m 128,-1,1
 125 41 125 41 96 90.5 c 128,-1,2
 67 140 67 140 67 206 c 0,3,4
 67 288 67 288 102 356.5 c 128,-1,5
 137 425 137 425 200.5 465.5 c 128,-1,6
 264 506 264 506 345 506 c 0,7,8
 407 506 407 506 457 479.5 c 128,-1,9
 507 453 507 453 536 403.5 c 128,-1,10
 565 354 565 354 565 288 c 0,11,12
 565 206 565 206 530 137.5 c 128,-1,13
 495 69 495 69 431.5 28.5 c 128,-1,14
 368 -12 368 -12 287 -12 c 0,15,0
 225 -12 225 -12 175 14.5 c 128,-1,1
405 71.5 m 128,-1,17
 455 106 455 106 481.5 163 c 128,-1,18
 508 220 508 220 508 284 c 0,19,20
 508 360 508 360 467 408.5 c 128,-1,21
 426 457 426 457 342 457 c 0,22,23
 277 457 277 457 227 422.5 c 128,-1,24
 177 388 177 388 150.5 331 c 128,-1,25
 124 274 124 274 124 210 c 0,26,27
 124 134 124 134 165 85.5 c 128,-1,28
 206 37 206 37 290 37 c 0,29,16
 355 37 355 37 405 71.5 c 128,-1,17
EndSplineSet
Substitution2: "Single Substitution lookup 14 subtable" ordmasculine
AlternateSubs2: "'aalt' Access All Alternates in Latin lookup 0 subtable" ordmasculine
EndChar
StartChar: p
Encoding: 112 112 182
Width: 632
GlyphClass: 2
Flags: W
AnchorPoint: "Anchor-1" 327 496 basechar 0
AnchorPoint: "Anchor-0" 221 0 basechar 0
LayerCount: 2
Fore
SplineSet
152 496 m 1,0,-1
 194 496 l 1,1,-1
 191 416 l 1,2,3
 227 459 227 459 275.5 482.5 c 128,-1,4
 324 506 324 506 381 506 c 0,5,6
 471 506 471 506 523.5 449 c 128,-1,7
 576 392 576 392 576 297 c 0,8,9
 576 216 576 216 544 145 c 128,-1,10
 512 74 512 74 450.5 31 c 128,-1,11
 389 -12 389 -12 305 -12 c 0,12,13
 239 -12 239 -12 192 16 c 128,-1,14
 145 44 145 44 121 94 c 1,15,-1
 68 -162 l 1,16,-1
 12 -162 l 1,17,-1
 152 496 l 1,0,-1
425.5 77.5 m 128,-1,19
 475 118 475 118 497 177 c 128,-1,20
 519 236 519 236 519 292 c 0,21,22
 519 365 519 365 479 411 c 128,-1,23
 439 457 439 457 369 457 c 0,24,25
 298 457 298 457 248.5 416 c 128,-1,26
 199 375 199 375 174.5 314 c 128,-1,27
 150 253 150 253 150 194 c 0,28,29
 150 122 150 122 189 79.5 c 128,-1,30
 228 37 228 37 300 37 c 0,31,18
 376 37 376 37 425.5 77.5 c 128,-1,19
EndSplineSet
EndChar
StartChar: r
Encoding: 114 114 185
Width: 632
GlyphClass: 2
Flags: W
AnchorPoint: "Anchor-1" 368 496 basechar 0
AnchorPoint: "Anchor-0" 137 0 basechar 0
LayerCount: 2
Fore
SplineSet
214 496 m 1,0,-1
 256 496 l 1,1,-1
 246 372 l 1,2,3
 290 435 290 435 358 468.5 c 128,-1,4
 426 502 426 502 501 502 c 0,5,6
 540 502 540 502 574 494 c 1,7,-1
 561 432 l 1,8,9
 517 445 517 445 476 445 c 0,10,11
 381 445 381 445 308 386.5 c 128,-1,12
 235 328 235 328 211 217 c 2,13,-1
 165 0 l 1,14,-1
 109 0 l 1,15,-1
 214 496 l 1,0,-1
EndSplineSet
EndChar
StartChar: s
Encoding: 115 115 188
Width: 632
GlyphClass: 2
Flags: W
AnchorPoint: "Anchor-1" 364 496 basechar 0
AnchorPoint: "Anchor-0" 292 0 basechar 0
LayerCount: 2
Fore
SplineSet
166 20.5 m 128,-1,1
 106 53 106 53 89 115 c 1,2,-1
 144 135 l 1,3,4
 154 85 154 85 199.5 61 c 128,-1,5
 245 37 245 37 307 37 c 0,6,7
 367 37 367 37 406.5 63 c 128,-1,8
 446 89 446 89 446 136 c 0,9,10
 446 170 446 170 420 188 c 128,-1,11
 394 206 394 206 341 224 c 2,12,-1
 266 249 l 2,13,14
 209 268 209 268 180 296.5 c 128,-1,15
 151 325 151 325 151 370 c 0,16,17
 151 412 151 412 177.5 443 c 128,-1,18
 204 474 204 474 247.5 490 c 128,-1,19
 291 506 291 506 341 506 c 0,20,21
 408 506 408 506 460.5 480.5 c 128,-1,22
 513 455 513 455 531 404 c 1,23,-1
 478 384 l 1,24,25
 467 420 467 420 426.5 438.5 c 128,-1,26
 386 457 386 457 335 457 c 0,27,28
 282 457 282 457 244 435 c 128,-1,29
 206 413 206 413 206 375 c 0,30,31
 206 347 206 347 228.5 328.5 c 128,-1,32
 251 310 251 310 290 297 c 2,33,-1
 365 272 l 2,34,35
 433 249 433 249 467 219.5 c 128,-1,36
 501 190 501 190 501 144 c 0,37,38
 501 97 501 97 474.5 61.5 c 128,-1,39
 448 26 448 26 403 7 c 128,-1,40
 358 -12 358 -12 302 -12 c 0,41,0
 226 -12 226 -12 166 20.5 c 128,-1,1
EndSplineSet
EndChar
StartChar: t
Encoding: 116 116 194
Width: 632
GlyphClass: 2
Flags: W
AnchorPoint: "Anchor-3" 387 542 basechar 0
AnchorPoint: "Anchor-1" 338 496 basechar 0
AnchorPoint: "Anchor-0" 292 0 basechar 0
LayerCount: 2
Fore
SplineSet
228.5 15.5 m 128,-1,1
 206 31 206 31 206 70 c 0,2,3
 206 96 206 96 213 127 c 2,4,-1
 282 451 l 1,5,-1
 172 451 l 1,6,-1
 182 496 l 1,7,-1
 292 496 l 1,8,-1
 318 620 l 1,9,-1
 374 620 l 1,10,-1
 348 496 l 1,11,-1
 563 496 l 1,12,-1
 552 451 l 1,13,-1
 338 451 l 1,14,-1
 268 122 l 2,15,16
 263 97 263 97 263 85 c 0,17,18
 263 65 263 65 275 57 c 128,-1,19
 287 49 287 49 316 49 c 2,20,-1
 417 49 l 1,21,-1
 407 0 l 1,22,-1
 305 0 l 2,23,0
 251 0 251 0 228.5 15.5 c 128,-1,1
EndSplineSet
EndChar
StartChar: w
Encoding: 119 119 208
Width: 632
GlyphClass: 2
Flags: W
AnchorPoint: "Anchor-1" 366 496 basechar 0
AnchorPoint: "Anchor-0" 262 0 basechar 0
LayerCount: 2
Fore
SplineSet
88 496 m 1,0,-1
 140 496 l 1,1,-1
 152 94 l 1,2,-1
 156 94 l 1,3,-1
 341 496 l 1,4,-1
 392 496 l 1,5,-1
 410 96 l 1,6,-1
 414 96 l 1,7,-1
 593 496 l 1,8,-1
 650 496 l 1,9,-1
 417 0 l 1,10,-1
 370 0 l 1,11,-1
 354 416 l 1,12,-1
 350 416 l 1,13,-1
 157 0 l 1,14,-1
 110 0 l 1,15,-1
 88 496 l 1,0,-1
EndSplineSet
EndChar
StartChar: y
Encoding: 121 121 214
Width: 632
GlyphClass: 2
Flags: W
AnchorPoint: "Anchor-1" 360 496 basechar 0
AnchorPoint: "Anchor-0" 261 0 basechar 0
LayerCount: 2
Fore
SplineSet
21 -113 m 1,0,-1
 98 -113 l 2,1,2
 132 -113 132 -113 147.5 -103.5 c 128,-1,3
 163 -94 163 -94 186 -62 c 2,4,-1
 238 13 l 1,5,-1
 119 496 l 1,6,-1
 176 496 l 1,7,-1
 275 75 l 1,8,-1
 279 75 l 1,9,-1
 555 496 l 1,10,-1
 619 496 l 1,11,-1
 258 -39 l 2,12,13
 220 -97 220 -97 200 -120 c 128,-1,14
 180 -143 180 -143 155.5 -152.5 c 128,-1,15
 131 -162 131 -162 87 -162 c 2,16,-1
 11 -162 l 1,17,-1
 21 -113 l 1,0,-1
EndSplineSet
EndChar
StartChar: braceleft
Encoding: 123 123 270
Width: 632
GlyphClass: 1
Flags: W
LayerCount: 2
Fore
SplineSet
197 -146.5 m 128,-1,1
 174 -131 174 -131 174 -99 c 0,2,3
 174 -84 174 -84 179 -57 c 2,4,-1
 225 154 l 2,5,6
 230 179 230 179 230 193 c 0,7,8
 230 222 230 222 212 236 c 128,-1,9
 194 250 194 250 151 253 c 1,10,-1
 159 293 l 1,11,12
 198 294 198 294 219.5 302 c 128,-1,13
 241 310 241 310 253.5 329.5 c 128,-1,14
 266 349 266 349 274 387 c 2,15,-1
 325 622 l 2,16,17
 332 658 332 658 341.5 675.5 c 128,-1,18
 351 693 351 693 369 700.5 c 128,-1,19
 387 708 387 708 421 708 c 2,20,-1
 567 708 l 1,21,-1
 558 664 l 1,22,-1
 421 664 l 2,23,24
 403 664 403 664 393.5 656.5 c 128,-1,25
 384 649 384 649 380 628 c 2,26,-1
 329 390 l 2,27,28
 316 331 316 331 294.5 304.5 c 128,-1,29
 273 278 273 278 236 272 c 1,30,-1
 235 266 l 1,31,32
 259 256 259 256 271 238 c 128,-1,33
 283 220 283 220 283 189 c 0,34,35
 283 164 283 164 276 133 c 2,36,-1
 231 -74 l 1,37,-1
 229 -90 l 2,38,39
 229 -105 229 -105 239.5 -111.5 c 128,-1,40
 250 -118 250 -118 273 -118 c 2,41,-1
 391 -118 l 1,42,-1
 383 -162 l 1,43,-1
 279 -162 l 2,44,0
 220 -162 220 -162 197 -146.5 c 128,-1,1
EndSplineSet
EndChar
StartChar: braceright
Encoding: 125 125 271
Width: 632
GlyphClass: 1
Flags: W
LayerCount: 2
Fore
SplineSet
85 -118 m 1,0,-1
 222 -118 l 2,1,2
 240 -118 240 -118 249.5 -110.5 c 128,-1,3
 259 -103 259 -103 263 -82 c 2,4,-1
 314 156 l 2,5,6
 327 215 327 215 348.5 241.5 c 128,-1,7
 370 268 370 268 407 274 c 1,8,-1
 408 280 l 1,9,10
 384 290 384 290 372 308 c 128,-1,11
 360 326 360 326 360 357 c 0,12,13
 360 382 360 382 367 413 c 2,14,-1
 412 620 l 1,15,-1
 414 636 l 2,16,17
 414 651 414 651 403.5 657.5 c 128,-1,18
 393 664 393 664 370 664 c 2,19,-1
 252 664 l 1,20,-1
 260 708 l 1,21,-1
 364 708 l 2,22,23
 423 708 423 708 446 692.5 c 128,-1,24
 469 677 469 677 469 645 c 0,25,26
 469 630 469 630 464 603 c 2,27,-1
 418 392 l 2,28,29
 413 367 413 367 413 353 c 0,30,31
 413 324 413 324 431 310 c 128,-1,32
 449 296 449 296 492 293 c 1,33,-1
 484 253 l 1,34,35
 445 252 445 252 423.5 244 c 128,-1,36
 402 236 402 236 389.5 216.5 c 128,-1,37
 377 197 377 197 369 159 c 2,38,-1
 318 -76 l 2,39,40
 311 -112 311 -112 301.5 -129.5 c 128,-1,41
 292 -147 292 -147 274 -154.5 c 128,-1,42
 256 -162 256 -162 222 -162 c 2,43,-1
 76 -162 l 1,44,-1
 85 -118 l 1,0,-1
EndSplineSet
EndChar
StartChar: cent
Encoding: 162 162 302
Width: 632
GlyphClass: 1
Flags: W
LayerCount: 2
Fore
SplineSet
153 63 m 128,-1,1
 117 117 117 117 117 194 c 0,2,3
 117 269 117 269 148.5 338.5 c 128,-1,4
 180 408 180 408 236.5 453.5 c 128,-1,5
 293 499 293 499 363 503 c 1,6,-1
 381 586 l 1,7,-1
 419 586 l 1,8,-1
 401 502 l 1,9,10
 449 497 449 497 486.5 470.5 c 128,-1,11
 524 444 524 444 545 397 c 1,12,-1
 493 379 l 1,13,14
 478 410 478 410 451.5 428 c 128,-1,15
 425 446 425 446 390 450 c 1,16,-1
 303 39 l 1,17,18
 348 39 348 39 386.5 57.5 c 128,-1,19
 425 76 425 76 452 114 c 1,20,-1
 506 92 l 1,21,22
 432 -12 432 -12 292 -12 c 1,23,-1
 275 -90 l 1,24,-1
 237 -90 l 1,25,-1
 255 -6 l 1,26,0
 189 9 189 9 153 63 c 128,-1,1
257 402.5 m 128,-1,28
 217 362 217 362 196.5 306 c 128,-1,29
 176 250 176 250 176 199 c 0,30,31
 176 142 176 142 199 101 c 128,-1,32
 222 60 222 60 266 47 c 1,33,-1
 352 450 l 1,34,27
 297 443 297 443 257 402.5 c 128,-1,28
EndSplineSet
EndChar
StartChar: sterling
Encoding: 163 163 307
Width: 632
GlyphClass: 1
Flags: W
LayerCount: 2
Fore
SplineSet
190.5 135.5 m 128,-1,1
 238 200 238 200 238 277 c 0,2,3
 238 295 238 295 234 329 c 1,4,-1
 120 329 l 1,5,-1
 128 369 l 1,6,-1
 227 369 l 1,7,8
 219 405 219 405 213 437.5 c 128,-1,9
 207 470 207 470 207 494 c 0,10,11
 207 544 207 544 229 586.5 c 128,-1,12
 251 629 251 629 297.5 655 c 128,-1,13
 344 681 344 681 412 681 c 0,14,15
 490 681 490 681 544.5 644.5 c 128,-1,16
 599 608 599 608 609 543 c 1,17,-1
 548 531 l 1,18,19
 541 581 541 581 505.5 606 c 128,-1,20
 470 631 470 631 411 631 c 0,21,22
 342 631 342 631 302.5 596 c 128,-1,23
 263 561 263 561 263 496 c 0,24,25
 263 471 263 471 268 446.5 c 128,-1,26
 273 422 273 422 285 369 c 1,27,-1
 493 369 l 1,28,-1
 485 329 l 1,29,-1
 292 329 l 1,30,31
 295 310 295 310 295 289 c 0,32,33
 295 137 295 137 176 69 c 1,34,35
 195 76 195 76 215 76 c 0,36,37
 234 76 234 76 250.5 72 c 128,-1,38
 267 68 267 68 296 58 c 0,39,40
 327 48 327 48 350 42.5 c 128,-1,41
 373 37 373 37 401 37 c 0,42,43
 421 37 421 37 440 41.5 c 128,-1,44
 459 46 459 46 501 60 c 1,45,-1
 507 15 l 1,46,47
 436 -12 436 -12 393 -12 c 0,48,49
 368 -12 368 -12 347.5 -7 c 128,-1,50
 327 -2 327 -2 299 8 c 0,51,52
 268 18 268 18 249 22.5 c 128,-1,53
 230 27 230 27 204 27 c 0,54,55
 173 27 173 27 142.5 18.5 c 128,-1,56
 112 10 112 10 69 -10 c 1,57,-1
 58 31 l 1,58,0
 143 71 143 71 190.5 135.5 c 128,-1,1
EndSplineSet
EndChar
StartChar: currency
Encoding: 164 164 303
Width: 632
GlyphClass: 1
Flags: W
LayerCount: 2
Fore
SplineSet
98 115 m 1,0,-1
 163 180 l 1,1,2
 113 241 113 241 113 321 c 256,3,4
 113 401 113 401 163 462 c 1,5,-1
 98 527 l 1,6,-1
 126 553 l 1,7,-1
 191 489 l 1,8,9
 220 513 220 513 256 525.5 c 128,-1,10
 292 538 292 538 331 538 c 256,11,12
 370 538 370 538 406 525.5 c 128,-1,13
 442 513 442 513 471 489 c 1,14,-1
 536 553 l 1,15,-1
 564 527 l 1,16,-1
 499 462 l 1,17,18
 549 401 549 401 549 321 c 256,19,20
 549 241 549 241 499 180 c 1,21,-1
 564 115 l 1,22,-1
 536 89 l 1,23,-1
 471 153 l 1,24,25
 442 129 442 129 406 116.5 c 128,-1,26
 370 104 370 104 331 104 c 256,27,28
 292 104 292 104 256 116.5 c 128,-1,29
 220 129 220 129 191 153 c 1,30,-1
 126 89 l 1,31,-1
 98 115 l 1,0,-1
413.5 178 m 128,-1,33
 451 200 451 200 473 238 c 128,-1,34
 495 276 495 276 495 321 c 256,35,36
 495 366 495 366 473 404 c 128,-1,37
 451 442 451 442 413.5 464 c 128,-1,38
 376 486 376 486 331 486 c 256,39,40
 286 486 286 486 248.5 464 c 128,-1,41
 211 442 211 442 189 404 c 128,-1,42
 167 366 167 366 167 321 c 256,43,44
 167 276 167 276 189 238 c 128,-1,45
 211 200 211 200 248.5 178 c 128,-1,46
 286 156 286 156 331 156 c 256,47,32
 376 156 376 156 413.5 178 c 128,-1,33
EndSplineSet
EndChar
StartChar: copyright
Encoding: 169 169 292
Width: 632
GlyphClass: 1
Flags: W
LayerCount: 2
Fore
SplineSet
179.5 33 m 128,-1,1
 112 79 112 79 75 158.5 c 128,-1,2
 38 238 38 238 38 334 c 256,3,4
 38 430 38 430 75 509.5 c 128,-1,5
 112 589 112 589 179.5 635 c 128,-1,6
 247 681 247 681 334 681 c 256,7,8
 421 681 421 681 488.5 635 c 128,-1,9
 556 589 556 589 593 509.5 c 128,-1,10
 630 430 630 430 630 334 c 256,11,12
 630 238 630 238 593 158.5 c 128,-1,13
 556 79 556 79 488.5 33 c 128,-1,14
 421 -13 421 -13 334 -13 c 256,15,0
 247 -13 247 -13 179.5 33 c 128,-1,1
228 194 m 128,-1,17
 186 245 186 245 186 335 c 256,18,19
 186 425 186 425 228.5 475.5 c 128,-1,20
 271 526 271 526 340 526 c 0,21,22
 420 526 420 526 459 446 c 1,23,-1
 409 425 l 1,24,25
 386 480 386 480 337 480 c 0,26,27
 297 480 297 480 270.5 442.5 c 128,-1,28
 244 405 244 405 244 335 c 0,29,30
 244 266 244 266 270.5 227.5 c 128,-1,31
 297 189 297 189 336 189 c 0,32,33
 364 189 364 189 381.5 201.5 c 128,-1,34
 399 214 399 214 412 243 c 1,35,-1
 462 223 l 1,36,37
 444 189 444 189 415.5 166 c 128,-1,38
 387 143 387 143 339 143 c 0,39,16
 270 143 270 143 228 194 c 128,-1,17
463.5 75 m 128,-1,41
 520 115 520 115 550.5 183 c 128,-1,42
 581 251 581 251 581 334 c 256,43,44
 581 417 581 417 550.5 485 c 128,-1,45
 520 553 520 553 463.5 593 c 128,-1,46
 407 633 407 633 334 633 c 256,47,48
 261 633 261 633 204.5 593 c 128,-1,49
 148 553 148 553 117.5 485 c 128,-1,50
 87 417 87 417 87 334 c 256,51,52
 87 251 87 251 117.5 183 c 128,-1,53
 148 115 148 115 204.5 75 c 128,-1,54
 261 35 261 35 334 35 c 256,55,40
 407 35 407 35 463.5 75 c 128,-1,41
EndSplineSet
EndChar
StartChar: logicalnot
Encoding: 172 172 323
Width: 632
GlyphClass: 1
Flags: W
LayerCount: 2
Fore
SplineSet
519 328 m 1,0,-1
 89 328 l 1,1,-1
 100 383 l 1,2,-1
 588 383 l 1,3,-1
 530 107 l 1,4,-1
 472 107 l 1,5,-1
 519 328 l 1,0,-1
EndSplineSet
EndChar
StartChar: plusminus
Encoding: 177 177 321
Width: 632
GlyphClass: 1
Flags: W
LayerCount: 2
Fore
SplineSet
295 273 m 1,0,-1
 83 273 l 1,1,-1
 94 324 l 1,2,-1
 307 324 l 1,3,-1
 343 496 l 1,4,-1
 395 496 l 1,5,-1
 358 324 l 1,6,-1
 571 324 l 1,7,-1
 559 273 l 1,8,-1
 347 273 l 1,9,-1
 311 102 l 1,10,-1
 260 102 l 1,11,-1
 295 273 l 1,0,-1
37 55 m 1,12,-1
 514 55 l 1,13,-1
 501 0 l 1,14,-1
 25 0 l 1,15,-1
 37 55 l 1,12,-1
EndSplineSet
EndChar
StartChar: uni00B3
Encoding: 179 179 246
Width: 632
GlyphClass: 1
Flags: W
LayerCount: 2
Fore
SplineSet
260.5 386.5 m 128,-1,1
 224 416 224 416 222 460 c 1,2,-1
 271 469 l 1,3,4
 281 398 281 398 355 398 c 0,5,6
 405 398 405 398 431 428 c 128,-1,7
 457 458 457 458 457 494 c 256,8,9
 457 530 457 530 423 546.5 c 128,-1,10
 389 563 389 563 338 562 c 1,11,-1
 346 602 l 1,12,13
 366 599 366 599 383 599 c 0,14,15
 431 599 431 599 459 619 c 128,-1,16
 487 639 487 639 487 683 c 0,17,18
 487 711 487 711 465.5 728 c 128,-1,19
 444 745 444 745 408 745 c 0,20,21
 342 745 342 745 314 678 c 1,22,-1
 268 687 l 1,23,24
 283 731 283 731 322.5 758.5 c 128,-1,25
 362 786 362 786 414 786 c 0,26,27
 467 786 467 786 503 758 c 128,-1,28
 539 730 539 730 539 684 c 0,29,30
 539 649 539 649 516 618.5 c 128,-1,31
 493 588 493 588 453 576 c 1,32,33
 479 565 479 565 493.5 543 c 128,-1,34
 508 521 508 521 508 493 c 0,35,36
 508 455 508 455 488.5 423.5 c 128,-1,37
 469 392 469 392 434.5 374.5 c 128,-1,38
 400 357 400 357 358 357 c 0,39,0
 297 357 297 357 260.5 386.5 c 128,-1,1
EndSplineSet
EndChar
StartChar: uni00B9
Encoding: 185 185 244
Width: 632
GlyphClass: 1
Flags: W
LayerCount: 2
Fore
SplineSet
447 699 m 1,0,-1
 357 699 l 1,1,-1
 362 722 l 1,2,3
 400 722 400 722 426 736 c 128,-1,4
 452 750 452 750 470 779 c 1,5,-1
 513 779 l 1,6,-1
 425 364 l 1,7,-1
 376 364 l 1,8,-1
 447 699 l 1,0,-1
EndSplineSet
EndChar
StartChar: onequarter
Encoding: 188 188 242
Width: 632
GlyphClass: 3
Flags: W
LayerCount: 2
Fore
SplineSet
221 593 m 1,0,-1
 153 593 l 1,1,-1
 161 626 l 1,2,3
 223 626 223 626 245 668 c 1,4,-1
 288 668 l 1,5,-1
 224 365 l 1,6,-1
 174 365 l 1,7,-1
 221 593 l 1,0,-1
561 668 m 1,8,-1
 621 668 l 1,9,-1
 117 0 l 1,10,-1
 57 0 l 1,11,-1
 561 668 l 1,8,-1
455 65 m 1,12,-1
 299 65 l 1,13,-1
 308 110 l 1,14,-1
 504 304 l 1,15,-1
 554 304 l 1,16,-1
 514 111 l 1,17,-1
 562 111 l 1,18,-1
 553 65 l 1,19,-1
 504 65 l 1,20,-1
 490 0 l 1,21,-1
 441 0 l 1,22,-1
 455 65 l 1,12,-1
464 111 m 1,23,-1
 490 231 l 1,24,-1
 488 231 l 1,25,-1
 367 111 l 1,26,-1
 464 111 l 1,23,-1
EndSplineSet
Ligature2: "'frac' Diagonal Fractions in Latin lookup 7 subtable" one slash four
EndChar
StartChar: questiondown
Encoding: 191 191 257
Width: 632
GlyphClass: 1
Flags: W
LayerCount: 2
Fore
SplineSet
148.5 -164 m 128,-1,1
 108 -146 108 -146 83 -112.5 c 128,-1,2
 58 -79 58 -79 58 -34 c 0,3,4
 58 14 58 14 80 52 c 128,-1,5
 102 90 102 90 137 119.5 c 128,-1,6
 172 149 172 149 227 184 c 0,7,8
 274 214 274 214 290.5 234.5 c 128,-1,9
 307 255 307 255 315 291 c 2,10,-1
 325 335 l 1,11,-1
 381 335 l 1,12,-1
 372 295 l 2,13,14
 363 256 363 256 350 231.5 c 128,-1,15
 337 207 337 207 312.5 185 c 128,-1,16
 288 163 288 163 241 134 c 0,17,18
 184 98 184 98 149 59 c 128,-1,19
 114 20 114 20 114 -28 c 0,20,21
 114 -73 114 -73 150 -102.5 c 128,-1,22
 186 -132 186 -132 243 -132 c 0,23,24
 304 -132 304 -132 342.5 -94.5 c 128,-1,25
 381 -57 381 -57 392 -11 c 1,26,-1
 448 -21 l 1,27,28
 429 -97 429 -97 370.5 -139.5 c 128,-1,29
 312 -182 312 -182 234 -182 c 0,30,0
 189 -182 189 -182 148.5 -164 c 128,-1,1
346 428 m 128,-1,32
 332 442 332 442 332 462 c 256,33,34
 332 482 332 482 346 496 c 128,-1,35
 360 510 360 510 380 510 c 256,36,37
 400 510 400 510 414 496 c 128,-1,38
 428 482 428 482 428 462 c 256,39,40
 428 442 428 442 414 428 c 128,-1,41
 400 414 400 414 380 414 c 256,42,31
 360 414 360 414 346 428 c 128,-1,32
EndSplineSet
EndChar
StartChar: Aring
Encoding: 197 197 10
Width: 632
GlyphClass: 2
Flags: W
AnchorPoint: "Anchor-2" 546 10 basechar 0
AnchorPoint: "Anchor-1" 430 836 basechar 0
AnchorPoint: "Anchor-0" 263 0 basechar 0
LayerCount: 2
Fore
SplineSet
328.5 689.5 m 128,-1,1
 314 713 314 713 314 740 c 0,2,3
 314 779 314 779 342.5 807.5 c 128,-1,4
 371 836 371 836 410 836 c 0,5,6
 450 836 450 836 478 807.5 c 128,-1,7
 506 779 506 779 506 740 c 0,8,9
 506 709 506 709 487 683.5 c 128,-1,10
 468 658 468 658 439 649 c 1,11,-1
 544 0 l 1,12,-1
 488 0 l 1,13,-1
 463 167 l 1,14,-1
 139 167 l 1,15,-1
 43 0 l 1,16,-1
 -18 0 l 1,17,-1
 367 655 l 1,18,0
 343 666 343 666 328.5 689.5 c 128,-1,1
456 217 m 1,19,-1
 397 607 l 1,20,-1
 393 607 l 1,21,-1
 168 217 l 1,22,-1
 456 217 l 1,19,-1
449 701 m 128,-1,24
 465 717 465 717 465 740 c 256,25,26
 465 763 465 763 449 779 c 128,-1,27
 433 795 433 795 410 795 c 0,28,29
 388 795 388 795 371.5 779 c 128,-1,30
 355 763 355 763 355 740 c 0,31,32
 355 718 355 718 371.5 701.5 c 128,-1,33
 388 685 388 685 410 685 c 0,34,23
 433 685 433 685 449 701 c 128,-1,24
EndSplineSet
EndChar
StartChar: AE
Encoding: 198 198 12
Width: 632
GlyphClass: 2
Flags: W
AnchorPoint: "Anchor-1" 404 668 basechar 0
AnchorPoint: "Anchor-0" 262 0 basechar 0
LayerCount: 2
Fore
SplineSet
357 668 m 1,0,-1
 705 668 l 1,1,-1
 695 619 l 1,2,-1
 443 619 l 1,3,-1
 390 369 l 1,4,-1
 593 369 l 1,5,-1
 582 319 l 1,6,-1
 379 319 l 1,7,-1
 322 49 l 1,8,-1
 577 49 l 1,9,-1
 567 0 l 1,10,-1
 254 0 l 1,11,-1
 290 167 l 1,12,-1
 111 167 l 1,13,-1
 12 0 l 1,14,-1
 -48 0 l 1,15,-1
 357 668 l 1,0,-1
300 216 m 1,16,-1
 386 621 l 1,17,-1
 382 621 l 1,18,-1
 140 216 l 1,19,-1
 300 216 l 1,16,-1
EndSplineSet
EndChar
StartChar: multiply
Encoding: 215 215 313
Width: 632
GlyphClass: 1
Flags: W
LayerCount: 2
Fore
SplineSet
77 84 m 1,0,-1
 281 252 l 1,1,-1
 148 420 l 1,2,-1
 187 452 l 1,3,-1
 319 283 l 1,4,-1
 523 452 l 1,5,-1
 555 412 l 1,6,-1
 351 244 l 1,7,-1
 484 76 l 1,8,-1
 445 45 l 1,9,-1
 313 213 l 1,10,-1
 109 45 l 1,11,-1
 77 84 l 1,0,-1
EndSplineSet
EndChar
StartChar: Oslash
Encoding: 216 216 68
Width: 632
GlyphClass: 2
Flags: W
AnchorPoint: "Anchor-3" 723 668 basechar 0
AnchorPoint: "Anchor-2" 534 10 basechar 0
AnchorPoint: "Anchor-1" 406 668 basechar 0
AnchorPoint: "Anchor-0" 264 0 basechar 0
LayerCount: 2
Fore
SplineSet
179 10.5 m 128,-1,1
 133 33 133 33 103 73 c 1,2,-1
 27 -3 l 1,3,-1
 -1 25 l 1,4,-1
 83 109 l 1,5,6
 53 172 53 172 53 256 c 0,7,8
 53 354 53 354 90.5 452 c 128,-1,9
 128 550 128 550 202 615 c 128,-1,10
 276 680 276 680 380 680 c 0,11,12
 504 680 504 680 566 594 c 1,13,-1
 642 670 l 1,14,-1
 671 643 l 1,15,-1
 586 558 l 1,16,17
 615 497 615 497 615 412 c 0,18,19
 615 314 615 314 577.5 216 c 128,-1,20
 540 118 540 118 466 53 c 128,-1,21
 392 -12 392 -12 288 -12 c 0,22,0
 225 -12 225 -12 179 10.5 c 128,-1,1
438 98 m 128,-1,24
 498 158 498 158 527 245 c 128,-1,25
 556 332 556 332 556 411 c 0,26,27
 556 469 556 469 541 512 c 1,28,-1
 145 115 l 1,29,30
 190 38 190 38 290 38 c 0,31,23
 378 38 378 38 438 98 c 128,-1,24
378 630 m 0,33,34
 290 630 290 630 230 570 c 128,-1,35
 170 510 170 510 141 423 c 128,-1,36
 112 336 112 336 112 257 c 0,37,38
 112 198 112 198 128 154 c 1,39,-1
 524 551 l 1,40,32
 479 630 479 630 378 630 c 0,33,34
EndSplineSet
EndChar
StartChar: ccedilla
Encoding: 231 231 127
Width: 632
GlyphClass: 2
Flags: W
AnchorPoint: "Anchor-1" 402 496 basechar 0
LayerCount: 2
Fore
SplineSet
174 -147 m 1,1,-1
 192 -123 l 1,2,3
 225 -145 225 -145 255 -145 c 0,4,5
 277 -145 277 -145 291 -133.5 c 128,-1,6
 305 -122 305 -122 305 -106 c 0,7,8
 305 -77 305 -77 263 -77 c 2,9,-1
 236 -79 l 2,10,11
 229 -79 229 -79 225 -76 c 128,-1,12
 221 -73 221 -73 221 -68 c 0,13,14
 221 -59 221 -59 228 -52 c 2,15,-1
 265 -7 l 1,16,17
 185 10 185 10 142 69 c 128,-1,18
 99 128 99 128 99 208 c 0,19,20
 99 284 99 284 134 352.5 c 128,-1,21
 169 421 169 421 233 463.5 c 128,-1,22
 297 506 297 506 379 506 c 0,23,24
 444 506 444 506 493.5 477 c 128,-1,25
 543 448 543 448 567 395 c 1,26,-1
 517 377 l 1,27,28
 500 415 500 415 461 436 c 128,-1,29
 422 457 422 457 375 457 c 0,30,31
 309 457 309 457 259.5 422 c 128,-1,32
 210 387 210 387 183.5 330 c 128,-1,33
 157 273 157 273 157 208 c 0,34,35
 157 133 157 133 199.5 85 c 128,-1,36
 242 37 242 37 323 37 c 0,37,38
 372 37 372 37 412 56 c 128,-1,39
 452 75 452 75 475 112 c 1,40,-1
 527 89 l 1,41,42
 489 36 489 36 429.5 10 c 128,-1,43
 370 -16 370 -16 299 -11 c 1,44,-1
 268 -47 l 1,45,46
 279 -44 279 -44 289 -44 c 0,47,48
 316 -44 316 -44 333 -59.5 c 128,-1,49
 350 -75 350 -75 350 -97 c 0,50,51
 350 -132 350 -132 323 -154.5 c 128,-1,52
 296 -177 296 -177 257 -177 c 0,53,0
 215 -177 215 -177 174 -147 c 1,1,-1
EndSplineSet
EndChar
StartChar: oslash
Encoding: 248 248 179
Width: 632
GlyphClass: 2
Flags: W
AnchorPoint: "Anchor-3" 644 496 basechar 0
AnchorPoint: "Anchor-2" 504 10 basechar 0
AnchorPoint: "Anchor-1" 365 496 basechar 0
AnchorPoint: "Anchor-0" 262 0 basechar 0
LayerCount: 2
Fore
SplineSet
194 5.5 m 128,-1,1
 151 23 151 23 121 56 c 1,2,-1
 55 -2 l 1,3,-1
 31 29 l 1,4,-1
 98 87 l 1,5,6
 67 137 67 137 67 206 c 0,7,8
 67 288 67 288 102 356.5 c 128,-1,9
 137 425 137 425 200.5 465.5 c 128,-1,10
 264 506 264 506 345 506 c 0,11,12
 394 506 394 506 436.5 489.5 c 128,-1,13
 479 473 479 473 509 441 c 1,14,-1
 575 498 l 1,15,-1
 599 467 l 1,16,-1
 532 410 l 1,17,18
 565 358 565 358 565 288 c 0,19,20
 565 206 565 206 530 137.5 c 128,-1,21
 495 69 495 69 431.5 28.5 c 128,-1,22
 368 -12 368 -12 287 -12 c 0,23,0
 237 -12 237 -12 194 5.5 c 128,-1,1
405 71.5 m 128,-1,25
 455 106 455 106 481.5 163 c 128,-1,26
 508 220 508 220 508 284 c 0,27,28
 508 335 508 335 490 372 c 1,29,-1
 162 90 l 1,30,31
 182 65 182 65 214.5 51 c 128,-1,32
 247 37 247 37 290 37 c 0,33,24
 355 37 355 37 405 71.5 c 128,-1,25
342 457 m 0,35,36
 277 457 277 457 227 422.5 c 128,-1,37
 177 388 177 388 150.5 331 c 128,-1,38
 124 274 124 274 124 210 c 0,39,40
 124 164 124 164 140 124 c 1,41,-1
 469 406 l 1,42,34
 425 457 425 457 342 457 c 0,35,36
EndSplineSet
EndChar
StartChar: Aogonek
Encoding: 260 260 9
Width: 632
GlyphClass: 2
Flags: W
AnchorPoint: "Anchor-1" 405 668 basechar 0
LayerCount: 2
Fore
SplineSet
375 668 m 1,0,-1
 436 668 l 1,1,-1
 544 0 l 1,2,3
 504 -12 504 -12 472.5 -36.5 c 128,-1,4
 441 -61 441 -61 441 -92 c 0,5,6
 441 -126 441 -126 492 -126 c 0,7,8
 503 -126 503 -126 517 -122 c 1,9,-1
 509 -163 l 1,10,11
 493 -168 493 -168 477 -168 c 0,12,13
 441 -168 441 -168 416 -151 c 128,-1,14
 391 -134 391 -134 391 -103 c 0,15,16
 391 -66 391 -66 417.5 -40 c 128,-1,17
 444 -14 444 -14 487 7 c 1,18,-1
 463 167 l 1,19,-1
 139 167 l 1,20,-1
 43 0 l 1,21,-1
 -18 0 l 1,22,-1
 375 668 l 1,0,-1
456 217 m 1,23,-1
 397 607 l 1,24,-1
 393 607 l 1,25,-1
 168 217 l 1,26,-1
 456 217 l 1,23,-1
EndSplineSet
EndChar
StartChar: aogonek
Encoding: 261 261 119
Width: 632
GlyphClass: 2
Flags: W
AnchorPoint: "Anchor-1" 363 496 basechar 0
LayerCount: 2
Fore
SplineSet
332.5 -151 m 128,-1,1
 310 -134 310 -134 310 -105 c 0,2,3
 310 -37 310 -37 417 11 c 1,4,-1
 415 79 l 1,5,6
 389 41 389 41 340 14.5 c 128,-1,7
 291 -12 291 -12 227 -12 c 0,8,9
 159 -12 159 -12 110.5 21 c 128,-1,10
 62 54 62 54 62 113 c 0,11,12
 62 205 62 205 155.5 252 c 128,-1,13
 249 299 249 299 456 309 c 1,14,-1
 457 314 l 2,15,16
 461 338 461 338 461 350 c 0,17,18
 461 398 461 398 429.5 428.5 c 128,-1,19
 398 459 398 459 332 459 c 0,20,21
 281 459 281 459 245.5 435.5 c 128,-1,22
 210 412 210 412 198 373 c 1,23,-1
 140 387 l 1,24,25
 166 446 166 446 217 476 c 128,-1,26
 268 506 268 506 334 506 c 0,27,28
 421 506 421 506 468 469.5 c 128,-1,29
 515 433 515 433 515 357 c 0,30,31
 515 326 515 326 508 294 c 2,32,-1
 487 194 l 2,33,34
 463 81 463 81 463 0 c 1,35,36
 423 -12 423 -12 391 -37.5 c 128,-1,37
 359 -63 359 -63 359 -93 c 0,38,39
 359 -126 359 -126 412 -126 c 0,40,41
 427 -126 427 -126 437 -123 c 1,42,-1
 428 -164 l 1,43,44
 409 -168 409 -168 390 -168 c 0,45,0
 355 -168 355 -168 332.5 -151 c 128,-1,1
360 78 m 128,-1,47
 416 120 416 120 432 195 c 2,48,-1
 446 262 l 1,49,50
 270 255 270 255 195 218 c 128,-1,51
 120 181 120 181 120 119 c 0,52,53
 120 81 120 81 152 58.5 c 128,-1,54
 184 36 184 36 236 36 c 0,55,46
 304 36 304 36 360 78 c 128,-1,47
EndSplineSet
EndChar
StartChar: dcroat
Encoding: 273 273 131
Width: 632
GlyphClass: 1
Flags: W
LayerCount: 2
Fore
SplineSet
109.5 45 m 128,-1,1
 57 102 57 102 57 197 c 0,2,3
 57 278 57 278 89 349 c 128,-1,4
 121 420 121 420 183 463 c 128,-1,5
 245 506 245 506 329 506 c 0,6,7
 395 506 395 506 440.5 478 c 128,-1,8
 486 450 486 450 509 397 c 1,9,-1
 544 561 l 1,10,-1
 376 561 l 1,11,-1
 384 601 l 1,12,-1
 553 601 l 1,13,-1
 576 708 l 1,14,-1
 632 708 l 1,15,-1
 609 601 l 1,16,-1
 674 601 l 1,17,-1
 665 561 l 1,18,-1
 601 561 l 1,19,-1
 520 183 l 2,20,21
 512 143 512 143 505.5 101.5 c 128,-1,22
 499 60 499 60 498 0 c 1,23,-1
 446 0 l 1,24,-1
 442 78 l 1,25,26
 406 35 406 35 357.5 11.5 c 128,-1,27
 309 -12 309 -12 252 -12 c 0,28,0
 162 -12 162 -12 109.5 45 c 128,-1,1
383.5 78 m 128,-1,30
 433 119 433 119 458 180 c 128,-1,31
 483 241 483 241 483 300 c 0,32,33
 483 372 483 372 444 414.5 c 128,-1,34
 405 457 405 457 333 457 c 0,35,36
 257 457 257 457 207.5 416.5 c 128,-1,37
 158 376 158 376 136 317 c 128,-1,38
 114 258 114 258 114 202 c 0,39,40
 114 129 114 129 154 83 c 128,-1,41
 194 37 194 37 264 37 c 256,42,29
 334 37 334 37 383.5 78 c 128,-1,30
EndSplineSet
EndChar
StartChar: eogonek
Encoding: 281 281 141
Width: 632
GlyphClass: 2
Flags: W
AnchorPoint: "Anchor-1" 261 496 basechar 0
LayerCount: 2
Fore
SplineSet
289 -166 m 128,-1,1
 266 -149 266 -149 266 -118 c 0,2,3
 266 -89 266 -89 284.5 -60.5 c 128,-1,4
 303 -32 303 -32 332 -11 c 1,5,6
 323 -12 323 -12 304 -12 c 0,7,8
 205 -12 205 -12 143.5 43 c 128,-1,9
 82 98 82 98 82 199 c 0,10,11
 82 278 82 278 115 348.5 c 128,-1,12
 148 419 148 419 209 462.5 c 128,-1,13
 270 506 270 506 350 506 c 0,14,15
 414 506 414 506 461 479.5 c 128,-1,16
 508 453 508 453 533 406.5 c 128,-1,17
 558 360 558 360 558 303 c 0,18,19
 558 278 558 278 551 243 c 1,20,-1
 140 243 l 1,21,22
 138 221 138 221 138 210 c 0,23,24
 138 128 138 128 182.5 82.5 c 128,-1,25
 227 37 227 37 309 37 c 0,26,27
 353 37 353 37 385 52.5 c 128,-1,28
 417 68 417 68 441 99 c 1,29,-1
 498 76 l 1,30,31
 460 31 460 31 401 3 c 0,32,33
 367 -13 367 -13 342 -42 c 128,-1,34
 317 -71 317 -71 317 -100 c 0,35,36
 317 -121 317 -121 331.5 -131 c 128,-1,37
 346 -141 346 -141 370 -141 c 0,38,39
 382 -141 382 -141 394 -137 c 1,40,-1
 385 -178 l 1,41,42
 368 -183 368 -183 352 -183 c 0,43,0
 312 -183 312 -183 289 -166 c 128,-1,1
501 310 m 0,45,46
 501 351 501 351 482 384.5 c 128,-1,47
 463 418 463 418 428 437.5 c 128,-1,48
 393 457 393 457 347 457 c 0,49,50
 271 457 271 457 220 409.5 c 128,-1,51
 169 362 169 362 149 289 c 1,52,-1
 500 289 l 1,53,44
 501 296 501 296 501 310 c 0,45,46
EndSplineSet
EndChar
StartChar: hbar
Encoding: 295 295 148
Width: 632
GlyphClass: 1
Flags: W
LayerCount: 2
Fore
SplineSet
180 561 m 1,0,-1
 115 561 l 1,1,-1
 124 601 l 1,2,-1
 188 601 l 1,3,-1
 211 708 l 1,4,-1
 267 708 l 1,5,-1
 244 601 l 1,6,-1
 413 601 l 1,7,-1
 405 561 l 1,8,-1
 236 561 l 1,9,-1
 206 419 l 1,10,11
 233 452 233 452 281 479 c 128,-1,12
 329 506 329 506 385 506 c 0,13,14
 464 506 464 506 502.5 466 c 128,-1,15
 541 426 541 426 541 363 c 0,16,17
 541 336 541 336 535 309 c 2,18,-1
 469 0 l 1,19,-1
 413 0 l 1,20,-1
 476 298 l 2,21,22
 483 327 483 327 483 357 c 0,23,24
 483 406 483 406 456 431.5 c 128,-1,25
 429 457 429 457 370 457 c 0,26,27
 328 457 328 457 287.5 434.5 c 128,-1,28
 247 412 247 412 217 370 c 128,-1,29
 187 328 187 328 175 273 c 2,30,-1
 117 0 l 1,31,-1
 61 0 l 1,32,-1
 180 561 l 1,0,-1
EndSplineSet
EndChar
StartChar: Iogonek
Encoding: 302 302 47
Width: 632
GlyphClass: 2
Flags: W
AnchorPoint: "Anchor-1" 405 668 basechar 0
LayerCount: 2
Fore
SplineSet
99 43 m 1,0,-1
 243 43 l 1,1,-1
 367 625 l 1,2,-1
 222 625 l 1,3,-1
 231 668 l 1,4,-1
 579 668 l 1,5,-1
 569 625 l 1,6,-1
 425 625 l 1,7,-1
 301 43 l 1,8,-1
 446 43 l 1,9,-1
 437 0 l 1,10,11
 397 -12 397 -12 365 -36.5 c 128,-1,12
 333 -61 333 -61 333 -92 c 0,13,14
 333 -126 333 -126 384 -126 c 0,15,16
 396 -126 396 -126 410 -122 c 1,17,-1
 402 -163 l 1,18,19
 386 -168 386 -168 369 -168 c 0,20,21
 333 -168 333 -168 308.5 -151 c 128,-1,22
 284 -134 284 -134 284 -103 c 0,23,24
 284 -42 284 -42 367 0 c 1,25,-1
 89 0 l 1,26,-1
 99 43 l 1,0,-1
EndSplineSet
EndChar
StartChar: iogonek
Encoding: 303 303 156
Width: 632
GlyphClass: 2
Flags: W
AnchorPoint: "Anchor-1" 407 696 basechar 0
LayerCount: 2
Fore
SplineSet
72 45 m 1,0,-1
 252 45 l 1,1,-1
 337 451 l 1,2,-1
 182 451 l 1,3,-1
 193 496 l 1,4,-1
 403 496 l 1,5,-1
 308 45 l 1,6,-1
 487 45 l 1,7,-1
 477 0 l 1,8,9
 437 -12 437 -12 405 -37.5 c 128,-1,10
 373 -63 373 -63 373 -93 c 0,11,12
 373 -126 373 -126 426 -126 c 0,13,14
 441 -126 441 -126 451 -123 c 1,15,-1
 442 -164 l 1,16,17
 423 -168 423 -168 404 -168 c 0,18,19
 369 -168 369 -168 346.5 -151 c 128,-1,20
 324 -134 324 -134 324 -105 c 0,21,22
 324 -45 324 -45 408 0 c 1,23,-1
 62 0 l 1,24,-1
 72 45 l 1,0,-1
361.5 613 m 128,-1,26
 347 627 347 627 347 647 c 256,27,28
 347 667 347 667 361.5 681.5 c 128,-1,29
 376 696 376 696 396 696 c 256,30,31
 416 696 416 696 430 681.5 c 128,-1,32
 444 667 444 667 444 647 c 0,33,34
 444 628 444 628 430 613.5 c 128,-1,35
 416 599 416 599 396 599 c 256,36,25
 376 599 376 599 361.5 613 c 128,-1,26
EndSplineSet
EndChar
StartChar: dotlessi
Encoding: 305 305 150
Width: 632
GlyphClass: 2
Flags: W
AnchorPoint: "Anchor-2" 479 10 basechar 0
AnchorPoint: "Anchor-1" 364 496 basechar 0
AnchorPoint: "Anchor-0" 263 0 basechar 0
LayerCount: 2
Fore
SplineSet
72 45 m 1,0,-1
 252 45 l 1,1,-1
 337 451 l 1,2,-1
 182 451 l 1,3,-1
 193 496 l 1,4,-1
 403 496 l 1,5,-1
 308 45 l 1,6,-1
 487 45 l 1,7,-1
 477 0 l 1,8,-1
 62 0 l 1,9,-1
 72 45 l 1,0,-1
EndSplineSet
EndChar
StartChar: OE
Encoding: 338 338 70
Width: 632
GlyphClass: 2
Flags: W
AnchorPoint: "Anchor-1" 405 668 basechar 0
AnchorPoint: "Anchor-0" 263 0 basechar 0
LayerCount: 2
Fore
SplineSet
47.5 50 m 128,-1,1
 12 112 12 112 12 208 c 0,2,3
 12 296 12 296 41.5 407.5 c 128,-1,4
 71 519 71 519 131.5 599.5 c 128,-1,5
 192 680 192 680 280 680 c 0,6,7
 388 680 388 680 419 560 c 1,8,-1
 441 668 l 1,9,-1
 702 668 l 1,10,-1
 692 619 l 1,11,-1
 488 619 l 1,12,-1
 435 369 l 1,13,-1
 594 369 l 1,14,-1
 583 319 l 1,15,-1
 424 319 l 1,16,-1
 367 49 l 1,17,-1
 575 49 l 1,18,-1
 564 0 l 1,19,-1
 299 0 l 1,20,-1
 315 74 l 1,21,22
 249 -12 249 -12 164 -12 c 0,23,0
 83 -12 83 -12 47.5 50 c 128,-1,1
288.5 110.5 m 128,-1,25
 336 184 336 184 360 284.5 c 128,-1,26
 384 385 384 385 384 463 c 0,27,28
 384 538 384 538 360 584.5 c 128,-1,29
 336 631 336 631 280 631 c 0,30,31
 212 631 212 631 164.5 556 c 128,-1,32
 117 481 117 481 93.5 379 c 128,-1,33
 70 277 70 277 70 203 c 256,34,35
 70 129 70 129 94 83 c 128,-1,36
 118 37 118 37 174 37 c 0,37,24
 241 37 241 37 288.5 110.5 c 128,-1,25
EndSplineSet
EndChar
StartChar: uni0162
Encoding: 354 354 85
Width: 632
GlyphClass: 2
Flags: W
AnchorPoint: "Anchor-1" 405 668 basechar 0
LayerCount: 2
Fore
SplineSet
366 618 m 1,0,-1
 141 618 l 1,1,-1
 152 668 l 1,2,-1
 658 668 l 1,3,-1
 648 618 l 1,4,-1
 424 618 l 1,5,-1
 292 0 l 1,6,-1
 282 0 l 1,7,-1
 241 -47 l 1,8,9
 252 -44 252 -44 262 -44 c 0,10,11
 289 -44 289 -44 306 -59.5 c 128,-1,12
 323 -75 323 -75 323 -97 c 0,13,14
 323 -132 323 -132 296 -154.5 c 128,-1,15
 269 -177 269 -177 230 -177 c 0,16,17
 188 -177 188 -177 147 -147 c 1,18,-1
 165 -123 l 1,19,20
 198 -145 198 -145 228 -145 c 0,21,22
 250 -145 250 -145 264 -133.5 c 128,-1,23
 278 -122 278 -122 278 -106 c 0,24,25
 278 -77 278 -77 236 -77 c 2,26,-1
 209 -79 l 2,27,28
 194 -79 194 -79 194 -68 c 0,29,30
 194 -60 194 -60 201 -52 c 2,31,-1
 244 0 l 1,32,-1
 234 0 l 1,33,-1
 366 618 l 1,0,-1
EndSplineSet
Substitution2: "'locl' Localized Forms in Latin lookup 4 subtable" uni021A
AlternateSubs2: "'aalt' Access All Alternates in Latin lookup 0 subtable" uni021A
EndChar
StartChar: uni0163
Encoding: 355 355 196
Width: 632
GlyphClass: 2
Flags: W
AnchorPoint: "Anchor-3" 387 542 basechar 0
AnchorPoint: "Anchor-1" 338 496 basechar 0
LayerCount: 2
Fore
SplineSet
174 -147 m 1,1,-1
 192 -123 l 1,2,3
 224 -145 224 -145 255 -145 c 0,4,5
 277 -145 277 -145 291 -133.5 c 128,-1,6
 305 -122 305 -122 305 -106 c 0,7,8
 305 -77 305 -77 263 -77 c 2,9,-1
 236 -79 l 2,10,11
 229 -79 229 -79 225 -76 c 128,-1,12
 221 -73 221 -73 221 -68 c 0,13,14
 221 -59 221 -59 228 -52 c 2,15,-1
 272 2 l 1,16,17
 237 6 237 6 221.5 22 c 128,-1,18
 206 38 206 38 206 70 c 0,19,20
 206 96 206 96 213 127 c 2,21,-1
 282 451 l 1,22,-1
 172 451 l 1,23,-1
 182 496 l 1,24,-1
 292 496 l 1,25,-1
 318 620 l 1,26,-1
 374 620 l 1,27,-1
 348 496 l 1,28,-1
 563 496 l 1,29,-1
 552 451 l 1,30,-1
 338 451 l 1,31,-1
 268 122 l 2,32,33
 263 97 263 97 263 85 c 0,34,35
 263 65 263 65 275 57 c 128,-1,36
 287 49 287 49 316 49 c 2,37,-1
 417 49 l 1,38,-1
 407 0 l 1,39,-1
 309 0 l 1,40,-1
 268 -47 l 1,41,42
 279 -44 279 -44 289 -44 c 0,43,44
 316 -44 316 -44 333 -59.5 c 128,-1,45
 350 -75 350 -75 350 -97 c 0,46,47
 350 -132 350 -132 323 -154.5 c 128,-1,48
 296 -177 296 -177 257 -177 c 0,49,0
 215 -177 215 -177 174 -147 c 1,1,-1
EndSplineSet
Substitution2: "'locl' Localized Forms in Latin lookup 4 subtable" uni021B
AlternateSubs2: "'aalt' Access All Alternates in Latin lookup 0 subtable" uni021B
EndChar
StartChar: Uogonek
Encoding: 370 370 94
Width: 632
GlyphClass: 2
Flags: W
AnchorPoint: "Anchor-3" 735 668 basechar 0
AnchorPoint: "Anchor-1" 400 668 basechar 0
LayerCount: 2
Fore
SplineSet
310 -151 m 128,-1,1
 287 -134 287 -134 287 -104 c 0,2,3
 287 -80 287 -80 301 -55.5 c 128,-1,4
 315 -31 315 -31 336 -10 c 1,5,6
 308 -12 308 -12 295 -12 c 0,7,8
 195 -12 195 -12 136 32 c 128,-1,9
 77 76 77 76 77 177 c 0,10,11
 77 215 77 215 88 268 c 2,12,-1
 173 668 l 1,13,-1
 231 668 l 1,14,-1
 144 259 l 2,15,16
 135 219 135 219 135 184 c 0,17,18
 135 38 135 38 296 38 c 0,19,20
 373 38 373 38 419 83.5 c 128,-1,21
 465 129 465 129 484 222 c 2,22,-1
 579 668 l 1,23,-1
 637 668 l 1,24,-1
 542 220 l 2,25,26
 525 139 525 139 490 86.5 c 128,-1,27
 455 34 455 34 401 7 c 0,28,29
 374 -7 374 -7 356 -33.5 c 128,-1,30
 338 -60 338 -60 338 -86 c 0,31,32
 338 -106 338 -106 352.5 -116 c 128,-1,33
 367 -126 367 -126 391 -126 c 0,34,35
 403 -126 403 -126 415 -122 c 1,36,-1
 406 -163 l 1,37,38
 389 -168 389 -168 373 -168 c 0,39,0
 333 -168 333 -168 310 -151 c 128,-1,1
EndSplineSet
EndChar
StartChar: uogonek
Encoding: 371 371 205
Width: 632
GlyphClass: 2
Flags: W
AnchorPoint: "Anchor-3" 607 496 basechar 0
AnchorPoint: "Anchor-1" 356 496 basechar 0
LayerCount: 2
Fore
SplineSet
135 28.5 m 128,-1,1
 98 69 98 69 98 133 c 0,2,3
 98 160 98 160 104 187 c 2,4,-1
 170 496 l 1,5,-1
 226 496 l 1,6,-1
 163 198 l 2,7,8
 156 167 156 167 156 137 c 0,9,10
 156 37 156 37 262 37 c 0,11,12
 303 37 303 37 341.5 59.5 c 128,-1,13
 380 82 380 82 409 124 c 128,-1,14
 438 166 438 166 450 222 c 2,15,-1
 509 496 l 1,16,-1
 565 496 l 1,17,-1
 459 0 l 1,18,19
 419 -12 419 -12 387 -37.5 c 128,-1,20
 355 -63 355 -63 355 -93 c 0,21,22
 355 -126 355 -126 408 -126 c 0,23,24
 423 -126 423 -126 433 -123 c 1,25,-1
 424 -164 l 1,26,27
 405 -168 405 -168 386 -168 c 0,28,29
 351 -168 351 -168 328.5 -151 c 128,-1,30
 306 -134 306 -134 306 -105 c 0,31,32
 306 -36 306 -36 418 14 c 1,33,-1
 423 79 l 1,34,35
 393 44 393 44 346 16 c 128,-1,36
 299 -12 299 -12 248 -12 c 0,37,0
 172 -12 172 -12 135 28.5 c 128,-1,1
EndSplineSet
EndChar
StartChar: uni0237
Encoding: 567 567 159
Width: 632
GlyphClass: 2
Flags: W
AnchorPoint: "Anchor-1" 394 496 basechar 0
AnchorPoint: "Anchor-0" 235 -251 basechar 0
LayerCount: 2
Fore
SplineSet
23 -113 m 1,0,-1
 185 -113 l 2,1,2
 213 -113 213 -113 228 -104.5 c 128,-1,3
 243 -96 243 -96 251 -77 c 128,-1,4
 259 -58 259 -58 268 -19 c 2,5,-1
 367 451 l 1,6,-1
 212 451 l 1,7,-1
 223 496 l 1,8,-1
 433 496 l 1,9,-1
 322 -24 l 2,10,11
 311 -78 311 -78 297.5 -106.5 c 128,-1,12
 284 -135 284 -135 259.5 -148.5 c 128,-1,13
 235 -162 235 -162 190 -162 c 2,14,-1
 12 -162 l 1,15,-1
 23 -113 l 1,0,-1
EndSplineSet
EndChar
StartChar: gravecomb
Encoding: 768 768 340
Width: 0
GlyphClass: 4
Flags: W
AnchorPoint: "Anchor-5" 458 697 basemark 0
AnchorPoint: "Anchor-5" 416 496 mark 0
AnchorPoint: "Anchor-1" 416 496 mark 0
LayerCount: 2
Fore
SplineSet
340.5 644.5 m 128,-1,1
 335 654 335 654 335 664 c 0,2,3
 335 677 335 677 343.5 687 c 128,-1,4
 352 697 352 697 364 697 c 0,5,6
 374 697 374 697 380.5 689.5 c 128,-1,7
 387 682 387 682 396 666 c 2,8,-1
 449 569 l 1,9,-1
 408 569 l 1,10,-1
 361 620 l 2,11,0
 346 635 346 635 340.5 644.5 c 128,-1,1
EndSplineSet
Substitution2: "Single Substitution lookup 12 subtable" gravecomb.case
Substitution2: "'case' Case-Sensitive Forms in Latin lookup 9 subtable" gravecomb.case
AlternateSubs2: "'aalt' Access All Alternates in Latin lookup 0 subtable" gravecomb.case
EndChar
StartChar: uni0302
Encoding: 770 770 347
Width: 0
GlyphClass: 4
Flags: W
AnchorPoint: "Anchor-5" 408 680 basemark 0
AnchorPoint: "Anchor-5" 369 496 mark 0
AnchorPoint: "Anchor-1" 369 496 mark 0
LayerCount: 2
Fore
SplineSet
409 680 m 0,1,2
 431 680 431 680 447 659 c 2,3,-1
 511 576 l 1,4,-1
 458 576 l 1,5,-1
 401 636 l 1,6,-1
 320 576 l 1,7,-1
 261 576 l 1,8,-1
 359 659 l 2,9,0
 385 680 385 680 409 680 c 0,1,2
EndSplineSet
Substitution2: "Single Substitution lookup 12 subtable" uni0302.case
Substitution2: "'case' Case-Sensitive Forms in Latin lookup 9 subtable" uni0302.case
AlternateSubs2: "'aalt' Access All Alternates in Latin lookup 0 subtable" uni0302.case
EndChar
StartChar: uni0304
Encoding: 772 772 357
Width: 0
GlyphClass: 4
Flags: W
AnchorPoint: "Anchor-5" 402 651 basemark 0
AnchorPoint: "Anchor-5" 369 496 mark 0
AnchorPoint: "Anchor-1" 369 496 mark 0
LayerCount: 2
Fore
SplineSet
275 651 m 1,0,-1
 530 651 l 1,1,-1
 519 606 l 1,2,-1
 264 606 l 1,3,-1
 275 651 l 1,0,-1
EndSplineSet
Substitution2: "Single Substitution lookup 12 subtable" uni0304.case
Substitution2: "'case' Case-Sensitive Forms in Latin lookup 9 subtable" uni0304.case
AlternateSubs2: "'aalt' Access All Alternates in Latin lookup 0 subtable" uni0304.case
EndChar
StartChar: uni0307
Encoding: 775 775 337
Width: 0
GlyphClass: 4
Flags: W
AnchorPoint: "Anchor-5" 409 688 basemark 0
AnchorPoint: "Anchor-5" 369 496 mark 0
AnchorPoint: "Anchor-1" 369 496 mark 0
LayerCount: 2
Fore
SplineSet
368 609.5 m 128,-1,1
 354 623 354 623 354 642 c 256,2,3
 354 661 354 661 368 674.5 c 128,-1,4
 382 688 382 688 400 688 c 256,5,6
 418 688 418 688 432 674.5 c 128,-1,7
 446 661 446 661 446 642 c 256,8,9
 446 623 446 623 432 609.5 c 128,-1,10
 418 596 418 596 400 596 c 256,11,0
 382 596 382 596 368 609.5 c 128,-1,1
EndSplineSet
Substitution2: "Single Substitution lookup 12 subtable" uni0307.case
Substitution2: "'case' Case-Sensitive Forms in Latin lookup 9 subtable" uni0307.case
AlternateSubs2: "'aalt' Access All Alternates in Latin lookup 0 subtable" uni0307.case
EndChar
StartChar: uni0308
Encoding: 776 776 335
Width: 0
GlyphClass: 4
Flags: W
AnchorPoint: "Anchor-5" 409 688 basemark 0
AnchorPoint: "Anchor-5" 369 496 mark 0
AnchorPoint: "Anchor-1" 369 496 mark 0
LayerCount: 2
Fore
SplineSet
449 611.5 m 128,-1,1
 436 625 436 625 436 643 c 256,2,3
 436 661 436 661 449 674.5 c 128,-1,4
 462 688 462 688 480 688 c 0,5,6
 499 688 499 688 512 674.5 c 128,-1,7
 525 661 525 661 525 643 c 256,8,9
 525 625 525 625 512 611.5 c 128,-1,10
 499 598 499 598 480 598 c 0,11,0
 462 598 462 598 449 611.5 c 128,-1,1
289 611.5 m 128,-1,13
 276 625 276 625 276 643 c 256,14,15
 276 661 276 661 289 674.5 c 128,-1,16
 302 688 302 688 321 688 c 0,17,18
 339 688 339 688 352 674.5 c 128,-1,19
 365 661 365 661 365 643 c 256,20,21
 365 625 365 625 352 611.5 c 128,-1,22
 339 598 339 598 321 598 c 0,23,12
 302 598 302 598 289 611.5 c 128,-1,13
EndSplineSet
Substitution2: "Single Substitution lookup 12 subtable" uni0308.case
Substitution2: "'case' Case-Sensitive Forms in Latin lookup 9 subtable" uni0308.case
AlternateSubs2: "'aalt' Access All Alternates in Latin lookup 0 subtable" uni0308.case
EndChar
StartChar: uni030A
Encoding: 778 778 353
Width: 0
GlyphClass: 4
Flags: W
AnchorPoint: "Anchor-5" 425 764 basemark 0
AnchorPoint: "Anchor-5" 368 496 mark 0
AnchorPoint: "Anchor-1" 368 496 mark 0
LayerCount: 2
Fore
SplineSet
337.5 600.5 m 128,-1,1
 309 629 309 629 309 668 c 256,2,3
 309 707 309 707 337.5 735.5 c 128,-1,4
 366 764 366 764 405 764 c 0,5,6
 445 764 445 764 473 735.5 c 128,-1,7
 501 707 501 707 501 668 c 256,8,9
 501 629 501 629 473 600.5 c 128,-1,10
 445 572 445 572 405 572 c 0,11,0
 366 572 366 572 337.5 600.5 c 128,-1,1
444 629 m 128,-1,13
 460 645 460 645 460 668 c 256,14,15
 460 691 460 691 444 707 c 128,-1,16
 428 723 428 723 405 723 c 0,17,18
 383 723 383 723 366.5 707 c 128,-1,19
 350 691 350 691 350 668 c 0,20,21
 350 646 350 646 366.5 629.5 c 128,-1,22
 383 613 383 613 405 613 c 0,23,12
 428 613 428 613 444 629 c 128,-1,13
EndSplineSet
Substitution2: "Single Substitution lookup 12 subtable" uni030A.case
Substitution2: "'case' Case-Sensitive Forms in Latin lookup 9 subtable" uni030A.case
AlternateSubs2: "'aalt' Access All Alternates in Latin lookup 0 subtable" uni030A.case
EndChar
StartChar: uni030B
Encoding: 779 779 344
Width: 0
GlyphClass: 4
Flags: W
AnchorPoint: "Anchor-5" 458 696 basemark 0
AnchorPoint: "Anchor-5" 331 496 mark 0
AnchorPoint: "Anchor-1" 331 496 mark 0
LayerCount: 2
Fore
SplineSet
391 696 m 0,1,2
 402 696 402 696 408 691 c 128,-1,3
 414 686 414 686 414 677 c 0,4,5
 414 663 414 663 404.5 653 c 128,-1,6
 395 643 395 643 367 621 c 2,7,-1
 299 569 l 1,8,-1
 250 569 l 1,9,-1
 341 666 l 2,10,0
 368 696 368 696 391 696 c 0,1,2
525 696 m 0,12,13
 535 696 535 696 542 690.5 c 128,-1,14
 549 685 549 685 549 677 c 0,15,16
 549 664 549 664 540 654.5 c 128,-1,17
 531 645 531 645 500 621 c 2,18,-1
 433 569 l 1,19,-1
 383 569 l 1,20,-1
 475 666 l 2,21,11
 502 696 502 696 525 696 c 0,12,13
EndSplineSet
Substitution2: "Single Substitution lookup 12 subtable" uni030B.case
Substitution2: "'case' Case-Sensitive Forms in Latin lookup 9 subtable" uni030B.case
AlternateSubs2: "'aalt' Access All Alternates in Latin lookup 0 subtable" uni030B.case
EndChar
StartChar: uni0326
Encoding: 806 806 359
Width: 0
GlyphClass: 4
Flags: W
AnchorPoint: "Anchor-4" 212 -235 basemark 0
AnchorPoint: "Anchor-4" 262 0 mark 0
AnchorPoint: "Anchor-0" 262 0 mark 0
LayerCount: 2
Fore
SplineSet
220 -182 m 128,-1,1
 250 -160 250 -160 250 -119 c 0,2,3
 250 -90 250 -90 227 -70 c 1,4,-1
 270 -53 l 1,5,6
 298 -82 298 -82 298 -117 c 0,7,8
 298 -147 298 -147 280.5 -174 c 128,-1,9
 263 -201 263 -201 235 -216.5 c 128,-1,10
 207 -232 207 -232 177 -231 c 1,11,-1
 152 -203 l 1,12,0
 190 -204 190 -204 220 -182 c 128,-1,1
EndSplineSet
EndChar
StartChar: uni0327
Encoding: 807 807 360
Width: 0
GlyphClass: 4
Flags: W
AnchorPoint: "Anchor-4" 228 -178 basemark 0
AnchorPoint: "Anchor-4" 266 0 mark 0
AnchorPoint: "Anchor-0" 266 0 mark 0
LayerCount: 2
Fore
SplineSet
147 -147 m 1,1,-1
 166 -123 l 1,2,3
 198 -145 198 -145 229 -145 c 0,4,5
 250 -145 250 -145 264 -133.5 c 128,-1,6
 278 -122 278 -122 278 -106 c 0,7,8
 278 -77 278 -77 237 -77 c 2,9,-1
 210 -79 l 2,10,11
 194 -79 194 -79 194 -68 c 0,12,13
 194 -60 194 -60 202 -52 c 2,14,-1
 261 20 l 1,15,-1
 288 6 l 1,16,-1
 242 -47 l 1,17,18
 253 -44 253 -44 263 -44 c 0,19,20
 289 -44 289 -44 306 -59.5 c 128,-1,21
 323 -75 323 -75 323 -97 c 0,22,23
 323 -132 323 -132 296.5 -154.5 c 128,-1,24
 270 -177 270 -177 231 -177 c 0,25,0
 188 -177 188 -177 147 -147 c 1,1,-1
EndSplineSet
EndChar
StartChar: pi
Encoding: 960 960 228
Width: 632
GlyphClass: 1
Flags: W
LayerCount: 2
Fore
SplineSet
186 451 m 1,0,-1
 115 451 l 1,1,-1
 125 496 l 1,2,-1
 598 496 l 1,3,-1
 588 451 l 1,4,-1
 505 451 l 1,5,-1
 435 118 l 2,6,7
 429 93 429 93 429 78 c 0,8,9
 429 61 429 61 438 55 c 128,-1,10
 447 49 447 49 469 49 c 2,11,-1
 502 49 l 1,12,-1
 492 0 l 1,13,-1
 480 0 l 2,14,15
 418 0 418 0 394.5 13 c 128,-1,16
 371 26 371 26 371 62 c 0,17,18
 371 83 371 83 379 123 c 2,19,-1
 449 451 l 1,20,-1
 242 451 l 1,21,-1
 146 0 l 1,22,-1
 90 0 l 1,23,-1
 186 451 l 1,0,-1
EndSplineSet
EndChar
StartChar: endash
Encoding: 8211 8211 265
Width: 632
GlyphClass: 1
Flags: W
LayerCount: 2
Fore
SplineSet
111 274 m 1,0,-1
 533 274 l 1,1,-1
 521 219 l 1,2,-1
 99 219 l 1,3,-1
 111 274 l 1,0,-1
EndSplineSet
EndChar
StartChar: quoteright
Encoding: 8217 8217 279
Width: 632
GlyphClass: 1
Flags: W
LayerCount: 2
Fore
SplineSet
355 595 m 128,-1,1
 345 609 345 609 345 627 c 0,2,3
 345 649 345 649 360.5 664.5 c 128,-1,4
 376 680 376 680 398 680 c 0,5,6
 421 680 421 680 435.5 664.5 c 128,-1,7
 450 649 450 649 450 630 c 0,8,9
 450 620 450 620 447 611.5 c 128,-1,10
 444 603 444 603 437 592 c 2,11,-1
 348 447 l 1,12,-1
 304 447 l 1,13,-1
 382 574 l 1,14,0
 365 581 365 581 355 595 c 128,-1,1
EndSplineSet
EndChar
StartChar: quotedblright
Encoding: 8221 8221 277
Width: 632
GlyphClass: 1
Flags: W
LayerCount: 2
Fore
SplineSet
443 595 m 128,-1,1
 433 609 433 609 433 627 c 0,2,3
 433 650 433 650 448.5 665 c 128,-1,4
 464 680 464 680 486 680 c 0,5,6
 510 680 510 680 524 665 c 128,-1,7
 538 650 538 650 538 631 c 0,8,9
 538 615 538 615 525 592 c 2,10,-1
 436 448 l 1,11,-1
 392 448 l 1,12,-1
 470 574 l 1,13,0
 453 581 453 581 443 595 c 128,-1,1
268 595 m 128,-1,15
 258 609 258 609 258 627 c 0,16,17
 258 650 258 650 273.5 665 c 128,-1,18
 289 680 289 680 311 680 c 0,19,20
 335 680 335 680 349 665 c 128,-1,21
 363 650 363 650 363 631 c 0,22,23
 363 615 363 615 350 592 c 2,24,-1
 261 448 l 1,25,-1
 217 448 l 1,26,-1
 295 574 l 1,27,14
 278 581 278 581 268 595 c 128,-1,15
EndSplineSet
EndChar
StartChar: quotedblbase
Encoding: 8222 8222 275
Width: 632
GlyphClass: 1
Flags: W
LayerCount: 2
Fore
SplineSet
143 9 m 128,-1,1
 133 23 133 23 133 41 c 0,2,3
 133 63 133 63 148.5 78.5 c 128,-1,4
 164 94 164 94 186 94 c 0,5,6
 211 94 211 94 224.5 79 c 128,-1,7
 238 64 238 64 238 45 c 0,8,9
 238 27 238 27 225 6 c 2,10,-1
 137 -138 l 1,11,-1
 92 -138 l 1,12,-1
 171 -12 l 1,13,0
 153 -5 153 -5 143 9 c 128,-1,1
318 9 m 128,-1,15
 308 23 308 23 308 41 c 0,16,17
 308 63 308 63 323.5 78.5 c 128,-1,18
 339 94 339 94 361 94 c 0,19,20
 386 94 386 94 399.5 79 c 128,-1,21
 413 64 413 64 413 45 c 0,22,23
 413 27 413 27 400 6 c 2,24,-1
 311 -138 l 1,25,-1
 267 -138 l 1,26,-1
 346 -12 l 1,27,14
 328 -5 328 -5 318 9 c 128,-1,15
EndSplineSet
EndChar
StartChar: daggerdbl
Encoding: 8225 8225 300
Width: 632
GlyphClass: 1
Flags: W
LayerCount: 2
Fore
SplineSet
276 171 m 1,0,-1
 82 171 l 1,1,-1
 95 232 l 1,2,-1
 289 232 l 1,3,-1
 332 434 l 1,4,-1
 138 434 l 1,5,-1
 151 496 l 1,6,-1
 345 496 l 1,7,-1
 382 668 l 1,8,-1
 431 668 l 1,9,-1
 394 496 l 1,10,-1
 587 496 l 1,11,-1
 574 434 l 1,12,-1
 381 434 l 1,13,-1
 338 232 l 1,14,-1
 531 232 l 1,15,-1
 518 171 l 1,16,-1
 325 171 l 1,17,-1
 289 0 l 1,18,-1
 240 0 l 1,19,-1
 276 171 l 1,0,-1
EndSplineSet
EndChar
StartChar: uni20B9
Encoding: 8377 8377 306
Width: 632
GlyphClass: 1
Flags: W
LayerCount: 2
Fore
SplineSet
116 291 m 1,0,-1
 125 336 l 1,1,-1
 272 336 l 2,2,3
 345 336 345 336 390 366.5 c 128,-1,4
 435 397 435 397 445 456 c 1,5,-1
 151 456 l 1,6,-1
 160 496 l 1,7,-1
 447 496 l 1,8,9
 443 553 443 553 388 585 c 128,-1,10
 333 617 333 617 224 617 c 2,11,-1
 186 617 l 1,12,-1
 196 668 l 1,13,-1
 633 668 l 1,14,-1
 625 628 l 1,15,-1
 416 628 l 1,16,17
 455 607 455 607 480 574 c 128,-1,18
 505 541 505 541 508 496 c 1,19,-1
 597 496 l 1,20,-1
 588 456 l 1,21,-1
 505 456 l 1,22,23
 496 374 496 374 431 331 c 128,-1,24
 366 288 366 288 264 288 c 2,25,-1
 187 288 l 1,26,-1
 427 0 l 1,27,-1
 357 0 l 1,28,-1
 116 291 l 1,0,-1
EndSplineSet
EndChar
StartChar: summation
Encoding: 8721 8721 329
Width: 632
GlyphClass: 1
Flags: W
LayerCount: 2
Fore
SplineSet
14 -105 m 1,0,-1
 343 260 l 1,1,-1
 166 611 l 1,2,-1
 178 668 l 1,3,-1
 633 668 l 1,4,-1
 621 611 l 1,5,-1
 227 611 l 1,6,-1
 405 253 l 1,7,-1
 87 -105 l 1,8,-1
 469 -105 l 1,9,-1
 457 -162 l 1,10,-1
 2 -162 l 1,11,-1
 14 -105 l 1,0,-1
EndSplineSet
EndChar
StartChar: uni2215
Encoding: 8725 8725 310
Width: 632
GlyphClass: 1
Flags: W
LayerCount: 2
Fore
SplineSet
596 668 m 1,0,-1
 675 668 l 1,1,-1
 72 0 l 1,2,-1
 -7 0 l 1,3,-1
 596 668 l 1,0,-1
EndSplineSet
EndChar
StartChar: lessequal
Encoding: 8804 8804 320
Width: 632
GlyphClass: 1
Flags: W
LayerCount: 2
Fore
SplineSet
92 266 m 1,0,-1
 104 317 l 1,1,-1
 592 484 l 1,2,-1
 577 418 l 1,3,-1
 177 288 l 1,4,-1
 523 159 l 1,5,-1
 511 101 l 1,6,-1
 92 266 l 1,0,-1
48 55 m 1,7,-1
 501 55 l 1,8,-1
 490 0 l 1,9,-1
 36 0 l 1,10,-1
 48 55 l 1,7,-1
EndSplineSet
EndChar
StartChar: acutecomb.case
Encoding: 65544 -1 343
Width: 0
GlyphClass: 4
Flags: W
AnchorPoint: "Anchor-5" 396 855 basemark 0
AnchorPoint: "Anchor-5" 356 668 mark 0
AnchorPoint: "Anchor-1" 356 668 mark 0
LayerCount: 2
Fore
SplineSet
494 840 m 0,1,2
 505 840 505 840 512 834.5 c 128,-1,3
 519 829 519 829 519 819 c 0,4,5
 519 806 519 806 508.5 797.5 c 128,-1,6
 498 789 498 789 467 773 c 2,7,-1
 401 739 l 1,8,-1
 344 739 l 1,9,-1
 445 816 l 2,10,0
 476 840 476 840 494 840 c 0,1,2
EndSplineSet
EndChar
StartChar: uni0307.large
Encoding: 65542 -1 339
Width: 0
GlyphClass: 4
Flags: W
AnchorPoint: "Anchor-5" 412 696 basemark 0
AnchorPoint: "Anchor-5" 370 496 mark 0
AnchorPoint: "Anchor-1" 370 496 mark 0
LayerCount: 2
Fore
SplineSet
366.5 613.5 m 128,-1,1
 352 628 352 628 352 647 c 0,2,3
 352 667 352 667 366.5 681.5 c 128,-1,4
 381 696 381 696 401 696 c 256,5,6
 421 696 421 696 435.5 681.5 c 128,-1,7
 450 667 450 667 450 647 c 256,8,9
 450 627 450 627 435.5 613 c 128,-1,10
 421 599 421 599 401 599 c 256,11,0
 381 599 381 599 366.5 613.5 c 128,-1,1
EndSplineSet
EndChar
StartChar: uni0328.alt
Encoding: 65553 -1 362
Width: 0
GlyphClass: 4
Flags: W
AnchorPoint: "Anchor-2" 332 10 mark 0
LayerCount: 2
Fore
SplineSet
200 -151 m 128,-1,1
 177 -134 177 -134 177 -104 c 0,2,3
 177 -66 177 -66 211 -28.5 c 128,-1,4
 245 9 245 9 286 26 c 1,5,-1
 317 22 l 1,6,7
 282 5 282 5 255 -25.5 c 128,-1,8
 228 -56 228 -56 228 -86 c 0,9,10
 228 -106 228 -106 242.5 -116 c 128,-1,11
 257 -126 257 -126 281 -126 c 0,12,13
 293 -126 293 -126 305 -122 c 1,14,-1
 296 -163 l 1,15,16
 279 -168 279 -168 263 -168 c 0,17,0
 223 -168 223 -168 200 -151 c 128,-1,1
EndSplineSet
EndChar
StartChar: zero.zero
Encoding: 65539 -1 239
Width: 632
GlyphClass: 1
Flags: W
LayerCount: 2
Fore
SplineSet
125.5 55 m 128,-1,1
 72 123 72 123 72 236 c 0,2,3
 72 334 72 334 105.5 437.5 c 128,-1,4
 139 541 139 541 209 612 c 128,-1,5
 279 683 279 683 383 683 c 0,6,7
 491 683 491 683 544.5 615 c 128,-1,8
 598 547 598 547 598 434 c 0,9,10
 598 336 598 336 564.5 232.5 c 128,-1,11
 531 129 531 129 461 58 c 128,-1,12
 391 -13 391 -13 287 -13 c 0,13,0
 179 -13 179 -13 125.5 55 c 128,-1,1
433 102 m 128,-1,15
 490 168 490 168 516.5 261 c 128,-1,16
 543 354 543 354 543 436 c 0,17,18
 543 526 543 526 504 580 c 128,-1,19
 465 634 465 634 381 634 c 0,20,21
 294 634 294 634 237 568.5 c 128,-1,22
 180 503 180 503 153.5 410 c 128,-1,23
 127 317 127 317 127 234 c 0,24,25
 127 144 127 144 166 90 c 128,-1,26
 205 36 205 36 289 36 c 0,27,14
 376 36 376 36 433 102 c 128,-1,15
298.5 297.5 m 128,-1,29
 283 313 283 313 283 335 c 256,30,31
 283 357 283 357 298.5 372.5 c 128,-1,32
 314 388 314 388 336 388 c 256,33,34
 358 388 358 388 373.5 372.5 c 128,-1,35
 389 357 389 357 389 335 c 256,36,37
 389 313 389 313 373.5 297.5 c 128,-1,38
 358 282 358 282 336 282 c 256,39,28
 314 282 314 282 298.5 297.5 c 128,-1,29
EndSplineSet
EndChar
